<?xml version="1.0" encoding="UTF-8" standalone="no"?>
<svg width="18px" height="18px" viewBox="0 0 18 18" version="1.1" xmlns="http://www.w3.org/2000/svg" xmlns:xlink="http://www.w3.org/1999/xlink" xmlns:sketch="http://www.bohemiancoding.com/sketch/ns">
    <!-- Generator: Sketch 3.5.1 (25234) - http://www.bohemiancoding.com/sketch -->
    <title>Shape</title>
    <desc>Created with Sketch.</desc>
    <defs></defs>
    <g id="Home" stroke="none" stroke-width="1" fill="none" fill-rule="evenodd" sketch:type="MSPage">
        <g sketch:type="MSArtboardGroup" transform="translate(-1012.000000, -3805.000000)" id="FOOTER" fill="#FFFFFF">
            <g sketch:type="MSLayerGroup" transform="translate(-30.000000, 3612.000000)">
                <g id="SOCIAL" transform="translate(936.854048, 193.000000)" sketch:type="MSShapeGroup">
                    <g id="facebook" transform="translate(105.145952, 0.000000)">
                        <path d="M17.006625,0 L0.993375,0 C0.444375,0 0,0.444375 0,0.993375 L0,17.006625 C0,17.555625 0.444375,18 0.993375,18 L9.61425,18 L9.61425,11.0295 L7.2675,11.0295 L7.2675,8.31375 L9.61425,8.31375 L9.61425,6.307875 C9.61425,3.983625 11.034,2.719125 13.1085,2.719125 C14.101875,2.719125 14.95575,2.791125 15.204375,2.824875 L15.204375,5.254875 L13.764375,5.254875 C12.639375,5.254875 12.42,5.790375 12.42,6.577875 L12.42,8.310375 L15.10875,8.310375 L14.76,11.028375 L12.42,11.028375 L12.42,18 L17.006625,18 C17.555625,18 18,17.555625 18,17.006625 L18,0.993375 C18,0.444375 17.555625,0 17.006625,0" id="Shape"></path>
                    </g>
                </g>
            </g>
        </g>
    </g>
</svg>