<?xml version="1.0" encoding="UTF-8" standalone="no"?>
<svg width="17px" height="21px" viewBox="0 0 17 21" version="1.1" xmlns="http://www.w3.org/2000/svg" xmlns:xlink="http://www.w3.org/1999/xlink" xmlns:sketch="http://www.bohemiancoding.com/sketch/ns">
    <!-- Generator: Sketch 3.4 (15575) - http://www.bohemiancoding.com/sketch -->
    <title>Imported Layers</title>
    <desc>Created with Sketch.</desc>
    <defs></defs>
    <g id="Page" stroke="none" stroke-width="1" fill="none" fill-rule="evenodd" sketch:type="MSPage">
        <g id="Basic-Page" sketch:type="MSArtboardGroup" transform="translate(-1256.000000, -1023.000000)" fill="#FFFFFF">
            <g id="FOOTER-Copy" sketch:type="MSLayerGroup" transform="translate(-29.000000, 972.000000)">
                <g id="Imported-Layers" transform="translate(1285.000000, 51.000000)" sketch:type="MSShapeGroup">
                    <path d="M4.77866667,14.4696563 C4.73166667,14.4886875 4.68366667,14.5001719 4.634,14.5014844 C4.58466667,14.5041094 4.53266667,14.4965625 4.47933333,14.4798281 C4.42566667,14.4630938 4.371,14.4388125 4.31366667,14.4040313 C4.25666667,14.3695781 4.19933333,14.3259375 4.13933333,14.2734375 C4.07933333,14.2209375 4.02866667,14.167125 3.987,14.114625 C3.94533333,14.0617969 3.914,14.0092969 3.89066667,13.9581094 C3.86833333,13.9069219 3.85533333,13.8557344 3.853,13.8068438 C3.85033333,13.7569688 3.85666667,13.7080781 3.87366667,13.6595156 C3.909,13.5568125 3.987,13.4465625 4.104,13.3300781 C4.22,13.2145781 4.37366667,13.0941563 4.55733333,12.9724219 C4.741,12.852 4.95566667,12.7302656 5.194,12.6111563 C5.431,12.4930313 5.69133333,12.3778594 5.97133333,12.2689219 C5.97933333,12.2662969 5.987,12.2623594 5.996,12.2597344 C6.004,12.2571094 6.01166667,12.2535 6.01966667,12.250875 C6.02733333,12.24825 6.035,12.2443125 6.043,12.2420156 C6.05066667,12.2393906 6.05866667,12.2354531 6.06633333,12.2328281 L6.056,12.2623594 L6.08866667,12.2495625 C6.009,12.4854844 5.91666667,12.7289531 5.81766667,12.964875 C5.71733333,13.2004688 5.60933333,13.4288438 5.49466667,13.6352344 C5.38033333,13.841625 5.26166667,14.0234063 5.142,14.1684375 C5.022,14.3118281 4.89966667,14.4181406 4.77866667,14.4696563 M12.013,11.3934844 C11.9243333,11.4305625 11.8243333,11.4279375 11.716,11.3921719 C11.608,11.3560781 11.491,11.2894688 11.3723333,11.1998906 C11.2526667,11.1099844 11.1303333,10.996125 11.0116667,10.8704531 C10.892,10.7434688 10.776,10.6036875 10.668,10.4616094 L10.694,10.4514375 L10.6796667,10.4347031 C10.6863333,10.4320781 10.6926667,10.4294531 10.698,10.4268281 C10.7043333,10.4245313 10.711,10.4219063 10.7173333,10.4192813 C10.724,10.4166563 10.7303333,10.4140313 10.737,10.4114063 C10.7433333,10.4091094 10.75,10.4064844 10.7566667,10.4038594 C10.9803333,10.3165781 11.1873333,10.2473438 11.375,10.1961563 C11.5613333,10.1462813 11.7266667,10.1128125 11.871,10.0987031 C12.013,10.0845938 12.134,10.0872188 12.228,10.1092031 C12.3216667,10.1295469 12.3906667,10.1679375 12.431,10.2256875 C12.4506667,10.2525938 12.4636667,10.28475 12.47,10.3244531 C12.4766667,10.3641563 12.4793333,10.4091094 12.474,10.4616094 C12.47,10.5127969 12.4596667,10.5718594 12.444,10.6358438 C12.4283333,10.6998281 12.4063333,10.770375 12.379,10.8474844 C12.3516667,10.9242656 12.323,10.9921875 12.2943333,11.053875 C12.2656667,11.1152344 12.2356667,11.1677344 12.2043333,11.214 C12.1743333,11.2599375 12.142,11.2973438 12.1106667,11.3278594 C12.0793333,11.3560781 12.047,11.3780625 12.013,11.3934844 M7.12766667,11.1382031 L8.116,8.313375 L9.62633333,10.2000938 L7.12766667,11.1382031 M7.922,6.91096875 C7.785,6.73804688 7.64833333,6.54970313 7.52066667,6.35479688 C7.39333333,6.15759375 7.276,5.9548125 7.181,5.75498438 C7.08466667,5.55515625 7.01166667,5.3589375 6.97133333,5.18076563 C6.931,5.00128125 6.92566667,4.83984375 6.966,4.7079375 C6.98166667,4.6554375 7.00666667,4.60785938 7.04166667,4.56290625 C7.07666667,4.51828125 7.121,4.47726563 7.17433333,4.44117188 C7.228,4.40409375 7.29033333,4.3719375 7.36333333,4.34240625 C7.435,4.3141875 7.51566667,4.28859375 7.604,4.26825 C7.69266667,4.24757813 7.77466667,4.23478125 7.84766667,4.22985938 C7.92066667,4.22460938 7.98566667,4.22854688 8.043,4.23871875 C8.10033333,4.24889063 8.14966667,4.2669375 8.19133333,4.29253125 C8.233,4.318125 8.267,4.35159375 8.293,4.39260938 C8.35933333,4.49498438 8.392,4.6449375 8.39833333,4.82573438 C8.405,5.00653125 8.38533333,5.21915625 8.34766667,5.44851563 C8.31,5.67689063 8.25266667,5.92167188 8.185,6.16907813 C8.11733333,6.41517188 8.03633333,6.66389063 7.95166667,6.89948438 L7.93233333,6.87520313 L7.922,6.91096875 M7.504,3.47484375 C7.302,3.51848438 7.13033333,3.57984375 6.98433333,3.65432813 C6.83866667,3.72848438 6.71866667,3.81707813 6.62233333,3.90928125 C6.52466667,4.00279688 6.45066667,4.102875 6.39333333,4.20164063 C6.336,4.30007813 6.29566667,4.39884375 6.26833333,4.4900625 C6.22133333,4.64625 6.20066667,4.81425 6.20566667,4.99242188 C6.211,5.17059375 6.24233333,5.3589375 6.29833333,5.55646875 C6.354,5.75235938 6.435,5.9574375 6.54033333,6.17039063 C6.64466667,6.38170313 6.772,6.59957813 6.92333333,6.82401563 C6.991,6.92507813 7.06,7.02121875 7.12633333,7.1124375 C7.19266667,7.20201563 7.25766667,7.28667188 7.32033333,7.36345313 C7.38166667,7.4405625 7.44,7.51110938 7.49333333,7.57246875 C7.547,7.63415625 7.59366667,7.68928125 7.634,7.73390625 L6.35166667,11.4138281 C6.32033333,11.424 6.28633333,11.4358125 6.25,11.4472969 C6.21366667,11.4587813 6.17433333,11.4728906 6.134,11.487 C6.09233333,11.5011094 6.04933333,11.5165313 6.004,11.5329375 C5.95833333,11.5496719 5.91,11.5664063 5.86066667,11.5857656 C5.48833333,11.7252188 5.14966667,11.8715625 4.845,12.025125 C4.53766667,12.1803281 4.26833333,12.3417656 4.03766667,12.5097656 C3.80466667,12.6790781 3.61333333,12.852 3.46366667,13.0288594 C3.31366667,13.2070313 3.20566667,13.3891406 3.142,13.5735469 C3.10033333,13.6952813 3.078,13.8147188 3.07566667,13.9298906 C3.073,14.0453906 3.09,14.15925 3.125,14.2681875 C3.16133333,14.377125 3.216,14.4824531 3.289,14.5848281 C3.362,14.6862188 3.45433333,14.7836719 3.56366667,14.875875 C3.67333333,14.9680781 3.78266667,15.04125 3.89333333,15.0976875 C4.00266667,15.1528125 4.11466667,15.1898906 4.22666667,15.20925 C4.33733333,15.2282813 4.44933333,15.2309063 4.56266667,15.2141719 C4.67433333,15.19875 4.78766667,15.1669219 4.901,15.1167188 C5.04166667,15.0553594 5.17966667,14.9667656 5.31366667,14.8529063 C5.44666667,14.7387188 5.57666667,14.60025 5.70433333,14.4361875 C5.83066667,14.272125 5.953,14.0824688 6.07433333,13.8672188 C6.194,13.6529531 6.31,13.4121094 6.42333333,13.1466563 C6.47533333,13.0262344 6.522,12.907125 6.56633333,12.7929375 C6.61066667,12.6790781 6.651,12.5688281 6.68733333,12.4648125 C6.724,12.361125 6.75666667,12.2649844 6.785,12.1777031 C6.81366667,12.09075 6.83733333,12.0123281 6.858,11.9470313 L10.022,10.7116406 C10.052,10.7536406 10.0873333,10.8038438 10.129,10.8576563 C10.1693333,10.9114688 10.216,10.9718438 10.2656667,11.0332031 C10.3163333,11.0945625 10.3696667,11.1601875 10.427,11.2254844 C10.4843333,11.2907813 10.5456667,11.3560781 10.6093333,11.4217031 C10.7486667,11.5624688 10.884,11.6792813 11.0143333,11.7714844 C11.1433333,11.862375 11.2683333,11.9302969 11.3893333,11.97525 C11.509,12.0202031 11.625,12.0405469 11.737,12.0405469 C11.8476667,12.0392344 11.9556667,12.0162656 12.0586667,11.9713125 C12.1406667,11.9355469 12.2186667,11.8869844 12.293,11.8252969 C12.366,11.7649219 12.4363333,11.6920781 12.5013333,11.6061094 C12.5663333,11.5214531 12.6276667,11.424 12.6836667,11.3150625 C12.741,11.206125 12.793,11.0843906 12.841,10.9511719 C12.8893333,10.8179531 12.9256667,10.6922813 12.9506667,10.5754688 C12.9753333,10.4589844 12.9883333,10.3500469 12.991,10.2499688 C12.9923333,10.1502188 12.9816667,10.0576875 12.961,9.97335938 C12.9386667,9.89001563 12.905,9.81421875 12.8593333,9.74760938 C12.789,9.64621875 12.694,9.5694375 12.573,9.51825 C12.4506667,9.4670625 12.3006667,9.44114063 12.1236667,9.44114063 C11.9453333,9.44114063 11.7396667,9.46935938 11.504,9.52317188 C11.267,9.57829688 11,9.66032813 10.703,9.77189063 C10.6626667,9.7873125 10.625,9.80142188 10.5873333,9.81684375 C10.5493333,9.83226563 10.5143333,9.8450625 10.4803333,9.85917188 C10.4466667,9.87328125 10.414,9.88607813 10.384,9.898875 C10.354,9.91167188 10.3256667,9.92315625 10.3006667,9.93464063 L8.41666667,7.497 C8.44266667,7.4326875 8.47266667,7.35590625 8.50533333,7.2699375 C8.53766667,7.18429688 8.573,7.08815625 8.608,6.98414063 C8.64466667,6.88045313 8.681,6.76889063 8.71733333,6.65207813 C8.754,6.53559375 8.79166667,6.41385938 8.82666667,6.2881875 C8.90366667,6.01125 8.96233333,5.75367188 9.00266667,5.5164375 C9.043,5.27821875 9.06366667,5.05903125 9.06633333,4.8601875 C9.069,4.66035938 9.052,4.4795625 9.017,4.32075 C8.98033333,4.1593125 8.92566667,4.01953125 8.85166667,3.89910938 C8.80733333,3.8285625 8.75133333,3.75670313 8.67966667,3.69009375 C8.608,3.62348438 8.52066667,3.56442188 8.414,3.51848438 C8.30733333,3.47221875 8.181,3.4400625 8.03133333,3.42989063 C7.87766667,3.41971875 7.70433333,3.43251563 7.504,3.47484375" id="Fill-1"></path>
                    <path d="M10.2983333,15.1629844 C10.2253333,15.1140937 10.134,15.0885 10.022,15.0885 L9.87233333,15.0885 L9.87233333,15.6640312 C9.90366667,15.6692812 9.95433333,15.6705937 10.022,15.6705937 C10.1406667,15.6705937 10.233,15.6463125 10.3033333,15.5974219 C10.3723333,15.5488594 10.4076667,15.474375 10.4076667,15.3769219 C10.4076667,15.2834062 10.371,15.2128594 10.2983333,15.1629844 L10.2983333,15.1629844 Z" id="Fill-2"></path>
                    <path d="M15.8136667,13.6260469 L15.8136667,4.2091875 L11.685,0.144703125 L2.01033333,0.144703125 C1.06766667,0.144703125 0.300666667,0.89971875 0.300666667,1.82765625 L0.300666667,19.1569219 C0.300666667,20.0848594 1.06766667,20.839875 2.01033333,20.839875 L14.1053333,20.839875 C15.0483333,20.839875 15.815,20.0848594 15.815,19.1569219 L15.815,17.9277656 L16.9623333,17.9277656 L16.9623333,13.6260469 L15.8136667,13.6260469 Z M14.6743333,19.1556094 C14.6743333,19.464375 14.4193333,19.7170312 14.104,19.7170312 L2.01033333,19.7170312 C1.69666667,19.7170312 1.44,19.4656875 1.44,19.1556094 L1.44,1.82765625 C1.44,1.51889062 1.69533333,1.26623437 2.01033333,1.26623437 L11.108,1.26623437 L11.108,4.77717187 L14.6743333,4.77717187 L14.6743333,13.6260469 L7.77866667,13.6260469 L7.77866667,17.9277656 L14.6743333,17.9277656 L14.6743333,19.1556094 Z M13.7266667,15.7588594 C13.7266667,15.9334219 13.698,16.0909219 13.6393333,16.2333281 C13.5806667,16.3754062 13.5013333,16.4971406 13.3983333,16.5985312 C13.289,16.7100937 13.1523333,16.7970469 12.9923333,16.8600469 C12.8306667,16.9227187 12.6483333,16.9535625 12.4453333,16.9535625 L11.405,16.9535625 L11.405,14.5963125 L12.4453333,14.5963125 C12.7186667,14.5963125 12.9506667,14.6491406 13.142,14.7554531 C13.3333333,14.8604531 13.4803333,15.0064687 13.5846667,15.1925156 C13.6796667,15.3654375 13.7266667,15.5537812 13.7266667,15.7588594 L13.7266667,15.7588594 Z M11.108,15.3769219 C11.108,15.4871719 11.0833333,15.58725 11.034,15.6768281 C10.9843333,15.7667344 10.918,15.8422031 10.8373333,15.9065156 C10.6353333,16.0666406 10.3633333,16.1473594 10.0206667,16.1473594 L9.875,16.1473594 L9.875,16.954875 L9.12366667,16.954875 L9.12366667,14.597625 L9.987,14.597625 C10.3776667,14.597625 10.6706667,14.6770312 10.8646667,14.8374844 C11.026,14.9720156 11.108,15.1528125 11.108,15.3769219 L11.108,15.3769219 Z M15.659,15.1167187 L14.7576667,15.1167187 L14.7576667,15.5925 L15.591,15.5925 L15.591,16.02825 L14.7576667,16.02825 L14.7576667,16.9561875 L14.009,16.9561875 L14.009,14.5989375 L15.659,14.5989375 L15.659,15.1167187 Z" id="Fill-3"></path>
                    <path d="M12.6653333,15.2604375 C12.603,15.2295937 12.5286667,15.2141719 12.444,15.2141719 L12.172,15.2141719 L12.172,16.3383281 L12.444,16.3383281 C12.5066667,16.3383281 12.5636667,16.3281562 12.6173333,16.3074844 C12.6706667,16.2871406 12.716,16.2589219 12.754,16.2228281 C12.7916667,16.1870625 12.8243333,16.1473594 12.8503333,16.1037187 C12.8763333,16.0600781 12.897,16.0115156 12.9126667,15.9603281 C12.9336667,15.8897812 12.944,15.8205469 12.944,15.752625 C12.944,15.637125 12.918,15.537375 12.8683333,15.4514062 C12.8176667,15.36675 12.7513333,15.3027656 12.6653333,15.2604375 L12.6653333,15.2604375 Z" id="Fill-4"></path>
                </g>
            </g>
        </g>
    </g>
</svg>