<?xml version="1.0" encoding="UTF-8" standalone="no"?>
<svg width="59px" height="68px" viewBox="0 0 59 68" version="1.1" xmlns="http://www.w3.org/2000/svg" xmlns:xlink="http://www.w3.org/1999/xlink" xmlns:sketch="http://www.bohemiancoding.com/sketch/ns">
    <!-- Generator: Sketch 3.4 (15575) - http://www.bohemiancoding.com/sketch -->
    <title>Page 1</title>
    <desc>Created with Sketch.</desc>
    <defs></defs>
    <g id="Page-1" stroke="none" stroke-width="1" fill="none" fill-rule="evenodd" sketch:type="MSPage">
        <path d="M40.352,47.699 L22.125,36.449 C22.352,35.551 22.575,34.649 22.575,33.75 C22.575,32.699 22.348,31.801 22.125,30.977 L40.352,19.801 C42.301,21.449 44.926,22.5 47.625,22.5 C53.852,22.5 58.95,17.477 58.95,11.25 C58.95,5.102 53.926,0 47.625,0 C41.477,0 36.375,5.024 36.375,11.25 C36.375,12.149 36.45,13.125 36.825,13.875 L18.602,25.195 C16.653,23.547 13.954,22.422 11.25,22.422 C5.102,22.422 0,27.445 0,33.746 C0,39.895 5.024,44.848 11.25,44.848 C13.95,44.848 16.649,43.871 18.602,42.223 L36.829,53.399 C36.454,54.223 36.379,55.125 36.379,56.098 C36.379,62.246 41.403,67.348 47.629,67.348 C53.856,67.348 58.954,62.324 58.954,56.098 C58.954,49.871 53.926,44.848 47.625,44.848 C44.852,44.848 42.227,45.973 40.352,47.699 Z" fill="#E87641" sketch:type="MSShapeGroup"></path>
    </g>
</svg>