<?xml version="1.0" encoding="UTF-8" standalone="no"?>
<svg width="17px" height="17px" viewBox="0 0 17 17" version="1.1" xmlns="http://www.w3.org/2000/svg" xmlns:xlink="http://www.w3.org/1999/xlink" xmlns:sketch="http://www.bohemiancoding.com/sketch/ns">
    <!-- Generator: Sketch 3.4 (15575) - http://www.bohemiancoding.com/sketch -->
    <title>Imported Layers Copy 2</title>
    <desc>Created with Sketch.</desc>
    <defs></defs>
    <g id="Page" stroke="none" stroke-width="1" fill="none" fill-rule="evenodd" sketch:type="MSPage">
        <g id="Basic-Page" sketch:type="MSArtboardGroup" transform="translate(-778.000000, -45.000000)" fill="#FF8247">
            <g id="HEADER" sketch:type="MSLayerGroup" transform="translate(20.000000, -1.000000)">
                <g id="PHONE" transform="translate(758.000000, 44.000000)" sketch:type="MSShapeGroup">
                    <path d="M15.2597235,18.1825486 C15.6600069,17.7354706 16.1070849,17.3291798 16.5307656,16.9017049 C17.1568013,16.2693456 17.1618602,15.50261 16.5393025,14.8737287 C15.7959641,14.1253315 15.0497802,13.3794637 14.301383,12.6370739 C13.6876783,12.0293767 12.9218912,12.0306414 12.3116645,12.6358092 C11.8459319,13.0977477 11.3779861,13.5584214 10.9223712,14.0301614 C10.8901209,14.0624117 10.8604,14.0883385 10.8297306,14.1082578 L10.5110215,14.4266507 C10.4218588,14.483563 10.3330124,14.4822983 10.2182391,14.4193786 C9.91691995,14.2562299 9.59694616,14.1240668 9.30795797,13.9425797 C7.9581871,13.0952182 6.82563164,12.0021852 5.82397455,10.7709817 C5.32599162,10.1582256 4.88270777,9.50752789 4.5763297,8.7714617 C4.52574096,8.64910018 4.52447624,8.56151842 4.59245486,8.46761307 L4.91116394,8.14890399 C4.92602438,8.12771996 4.94309808,8.1068521 4.96554684,8.08598424 C5.10498206,7.95129172 5.24473346,7.81533447 5.38163924,7.67842869 C5.70414247,7.3584549 6.02380008,7.03468695 6.34377388,6.71376462 C6.98119202,6.07255231 6.97992731,5.31941242 6.33997972,4.67345742 C5.9770055,4.30763758 5.61150184,3.94339864 5.245682,3.5791597 C4.87037677,3.20353829 4.49728479,2.8244389 4.11818541,2.45261165 C3.50448073,1.84997326 2.73742893,1.84870854 2.1246728,2.45134693 C1.65672693,2.91202066 1.20459005,3.38755484 0.729055878,3.83969172 C0.287036746,4.26084299 0.0609683051,4.77210547 0.0163869763,5.3725306 C-0.0563343403,6.34573152 0.182065106,7.26581426 0.515318444,8.16376443 C1.20585477,10.0213198 2.25430645,11.6651377 3.52408387,13.1755279 C5.2409393,15.2183645 7.29357751,16.8362557 9.69338095,18.0023262 C10.7728182,18.5271844 11.8943074,18.9309458 13.1106505,18.9976597 C13.9456809,19.0447705 14.6770044,18.8335625 15.2597235,18.1825486 L15.2597235,18.1825486 Z" id="Imported-Layers-Copy-2"></path>
                </g>
            </g>
        </g>
    </g>
</svg>