<?xml version="1.0" encoding="UTF-8" standalone="no"?>
<svg width="24px" height="22px" viewBox="0 0 24 22" version="1.1" xmlns="http://www.w3.org/2000/svg" xmlns:xlink="http://www.w3.org/1999/xlink" xmlns:sketch="http://www.bohemiancoding.com/sketch/ns">
    <!-- Generator: Sketch 3.4 (15575) - http://www.bohemiancoding.com/sketch -->
    <title>Imported-Layers</title>
    <desc>Created with Sketch.</desc>
    <defs></defs>
    <g id="Page-1" stroke="none" stroke-width="1" fill="none" fill-rule="evenodd" sketch:type="MSPage">
        <g id="icon-checkmark-orange" sketch:type="MSLayerGroup" fill="#599B2C">
            <g id="Home" sketch:type="MSShapeGroup">
                <g id="DIFFERENT">
                    <g id="Group">
                        <g id="TABLE">
                            <path d="M22.9944,2.2032 L10.5306,21.0588 C10.4862,21.1032 10.4862,21.1476 10.4418,21.195 C10.1274,21.6 9.6774,21.87 9.1362,21.87 C8.5968,21.87 8.1,21.6 7.8306,21.195 L0.4056,13.095 C0.1362,12.825 0,12.42 0,12.0144 C0,11.1144 0.7194,10.35 1.6644,10.35 C2.025,10.35 2.3394,10.4394 2.6088,10.62 C2.6976,10.6644 2.7894,10.7556 2.8782,10.845 L8.7282,15.8838 L20.8362,0.5394 C21.1056,0.225 21.4668,0 21.9168,0 C22.6806,0 23.3112,0.6306 23.3112,1.395 C23.3112,1.62 23.2194,1.7976 23.175,1.9782 C23.0862,2.0676 23.0418,2.1588 22.9944,2.2032 L22.9944,2.2032 Z" id="Imported-Layers"></path>
                        </g>
                    </g>
                </g>
            </g>
        </g>
    </g>
</svg>