<?xml version="1.0" encoding="UTF-8" standalone="no"?>
<svg width="24px" height="22px" viewBox="0 0 24 22" version="1.1" xmlns="http://www.w3.org/2000/svg" xmlns:xlink="http://www.w3.org/1999/xlink" xmlns:sketch="http://www.bohemiancoding.com/sketch/ns">
    <!-- Generator: Sketch 3.4 (15575) - http://www.bohemiancoding.com/sketch -->
    <title>Imported Layers</title>
    <desc>Created with Sketch.</desc>
    <defs></defs>
    <g id="Home" stroke="none" stroke-width="1" fill="none" fill-rule="evenodd" sketch:type="MSPage">
        <g sketch:type="MSArtboardGroup" transform="translate(-1363.000000, -2282.000000)" id="DIFFERENT" fill="#E87641">
            <g sketch:type="MSLayerGroup" transform="translate(429.000000, 2094.000000)">
                <g id="TABLE" transform="translate(0.000000, 99.000000)" sketch:type="MSShapeGroup">
                    <path d="M956.9944,91.2032 L944.5306,110.0588 C944.4862,110.1032 944.4862,110.1476 944.4418,110.195 C944.1274,110.6 943.6774,110.87 943.1362,110.87 C942.5968,110.87 942.1,110.6 941.8306,110.195 L934.4056,102.095 C934.1362,101.825 934,101.42 934,101.0144 C934,100.1144 934.7194,99.35 935.6644,99.35 C936.025,99.35 936.3394,99.4394 936.6088,99.62 C936.6976,99.6644 936.7894,99.7556 936.8782,99.845 L942.7282,104.8838 L954.8362,89.5394 C955.1056,89.225 955.4668,89 955.9168,89 C956.6806,89 957.3112,89.6306 957.3112,90.395 C957.3112,90.62 957.2194,90.7976 957.175,90.9782 C957.0862,91.0676 957.0418,91.1588 956.9944,91.2032 Z" id="Imported-Layers"></path>
                </g>
            </g>
        </g>
    </g>
</svg>