<?xml version="1.0" encoding="UTF-8" standalone="no"?>
<svg width="68px" height="67px" viewBox="0 0 68 67" version="1.1" xmlns="http://www.w3.org/2000/svg" xmlns:xlink="http://www.w3.org/1999/xlink" xmlns:sketch="http://www.bohemiancoding.com/sketch/ns">
    <!-- Generator: Sketch 3.4 (15575) - http://www.bohemiancoding.com/sketch -->
    <title>LOGO Copy</title>
    <desc>Created with Sketch.</desc>
    <defs></defs>
    <g id="Page" stroke="none" stroke-width="1" fill="none" fill-rule="evenodd" sketch:type="MSPage">
        <g id="Basic-Page" sketch:type="MSArtboardGroup" transform="translate(-431.000000, -1020.000000)">
            <g id="FOOTER-Copy" sketch:type="MSLayerGroup" transform="translate(-29.000000, 972.000000)">
                <g id="LOGO-Copy" transform="translate(460.000000, 48.000000)" sketch:type="MSShapeGroup">
                    <path d="M64.8847656,59.387207 L64.4438477,59.387207 L64.4438477,60.3339844 L64.8984375,60.3339844 C65.1559258,60.3339844 65.3404942,60.2980961 65.4521484,60.2263184 C65.5638026,60.1545407 65.6196289,60.0389005 65.6196289,59.8793945 C65.6196289,59.7062166 65.561524,59.5808923 65.4453125,59.503418 C65.329101,59.4259436 65.1422539,59.387207 64.8847656,59.387207 L64.8847656,59.387207 Z M64.9804688,59.0385742 C65.3769551,59.0385742 65.6748851,59.1040846 65.8742676,59.2351074 C66.0736501,59.3661302 66.1733398,59.5615221 66.1733398,59.8212891 C66.1733398,60.0240896 66.1163743,60.1927077 66.0024414,60.3271484 C65.8885085,60.4615892 65.7278656,60.5493162 65.5205078,60.590332 L66.159668,61.8925781 L65.5546875,61.8925781 L64.9736328,60.6757812 L64.4438477,60.6757812 L64.4438477,61.8925781 L63.9038086,61.8925781 L63.9038086,59.0385742 L64.9804688,59.0385742 Z M67.1030273,60.5356445 C67.1030273,60.2303045 67.0500494,59.9443373 66.9440918,59.6777344 C66.8381342,59.4111315 66.6837575,59.1764333 66.480957,58.9736328 C66.2713206,58.7617177 66.0337741,58.6005051 65.7683105,58.4899902 C65.502847,58.3794754 65.2197281,58.3242188 64.9189453,58.3242188 C64.6227199,58.3242188 64.3435885,58.3777664 64.081543,58.4848633 C63.8194974,58.5919602 63.5904958,58.7457672 63.3945312,58.9462891 C63.1803375,59.1627615 63.015707,59.4065742 62.9006348,59.6777344 C62.7855626,59.9488946 62.7280273,60.2280259 62.7280273,60.5151367 C62.7280273,60.7999689 62.783284,61.0739733 62.8937988,61.3371582 C63.0043137,61.6003431 63.1632477,61.8367503 63.3706055,62.0463867 C63.5756846,62.2560232 63.8109524,62.4172358 64.076416,62.5300293 C64.3418796,62.6428228 64.615884,62.6992188 64.8984375,62.6992188 C65.1946629,62.6992188 65.4755032,62.6445318 65.7409668,62.5351562 C66.0064304,62.4257807 66.2485341,62.2662771 66.4672852,62.0566406 C66.6723643,61.8561188 66.8295893,61.6254082 66.9389648,61.364502 C67.0483404,61.1035957 67.1030273,60.8273127 67.1030273,60.5356445 L67.1030273,60.5356445 Z M64.9121094,57.9960938 C65.2561866,57.9960938 65.5820297,58.0598952 65.8896484,58.1875 C66.1972672,58.3151048 66.4707019,58.5008126 66.7099609,58.7446289 C66.9446626,58.9816093 67.1246739,59.2527654 67.25,59.5581055 C67.3753261,59.8634455 67.4379883,60.1824528 67.4379883,60.5151367 C67.4379883,60.859214 67.3753261,61.1822088 67.25,61.4841309 C67.1246739,61.7860529 66.942384,62.0532215 66.703125,62.2856445 C66.4547514,62.5271822 66.1761897,62.7123203 65.8674316,62.8410645 C65.5586736,62.9698086 65.240236,63.0341797 64.9121094,63.0341797 C64.5771468,63.0341797 64.2575699,62.9698086 63.9533691,62.8410645 C63.6491684,62.7123203 63.3763033,62.5249036 63.1347656,62.2788086 C62.8955066,62.0372709 62.7132168,61.7655451 62.5878906,61.463623 C62.4625645,61.161701 62.3999023,60.845542 62.3999023,60.5151367 C62.3999023,60.1824528 62.4654128,59.8605973 62.5964355,59.5495605 C62.7274583,59.2385238 62.9160144,58.9588229 63.1621094,58.7104492 C63.3922538,58.4757475 63.6560044,58.2980149 63.9533691,58.1772461 C64.2507339,58.0564773 64.5703108,57.9960938 64.9121094,57.9960938 L64.9121094,57.9960938 Z" id="®-copy" opacity="0.462278451" fill="#FFFFFF"></path>
                    <path d="M33.5,67 C52.0015391,67 67,52.0015391 67,33.5 C67,14.9984609 52.0015391,0 33.5,0 C14.9984609,0 0,14.9984609 0,33.5 C0,52.0015391 14.9984609,67 33.5,67 L33.5,67 Z M33.5,55.3139535 C21.4524862,55.3139535 11.6860465,45.5475138 11.6860465,33.5 C11.6860465,21.4524862 21.4524862,11.6860465 33.5,11.6860465 C45.5475138,11.6860465 55.3139535,21.4524862 55.3139535,33.5 C55.3139535,45.5475138 45.5475138,55.3139535 33.5,55.3139535 L33.5,55.3139535 Z" id="Shape" fill="#81BF58"></path>
                </g>
            </g>
        </g>
    </g>
</svg>