<?xml version="1.0" encoding="UTF-8" standalone="no"?>
<svg width="326px" height="51px" viewBox="0 0 326 51" version="1.1" xmlns="http://www.w3.org/2000/svg" xmlns:xlink="http://www.w3.org/1999/xlink" xmlns:sketch="http://www.bohemiancoding.com/sketch/ns">
    <!-- Generator: Sketch 3.4 (15575) - http://www.bohemiancoding.com/sketch -->
    <title>LOGO</title>
    <desc>Created with Sketch.</desc>
    <defs>
        <filter x="-50%" y="-50%" width="200%" height="200%" filterUnits="objectBoundingBox" id="filter-1">
            <feOffset dx="0" dy="1" in="SourceAlpha" result="shadowOffsetOuter1"></feOffset>
            <feGaussianBlur stdDeviation="4.5" in="shadowOffsetOuter1" result="shadowBlurOuter1"></feGaussianBlur>
            <feColorMatrix values="0 0 0 0 0   0 0 0 0 0   0 0 0 0 0  0 0 0 0.35 0" in="shadowBlurOuter1" type="matrix" result="shadowMatrixOuter1"></feColorMatrix>
            <feMerge>
                <feMergeNode in="shadowMatrixOuter1"></feMergeNode>
                <feMergeNode in="SourceGraphic"></feMergeNode>
            </feMerge>
        </filter>
        <filter x="-50%" y="-50%" width="200%" height="200%" filterUnits="objectBoundingBox" id="filter-2">
            <feOffset dx="0" dy="1" in="SourceAlpha" result="shadowOffsetOuter1"></feOffset>
            <feGaussianBlur stdDeviation="4.5" in="shadowOffsetOuter1" result="shadowBlurOuter1"></feGaussianBlur>
            <feColorMatrix values="0 0 0 0 0   0 0 0 0 0   0 0 0 0 0  0 0 0 0.35 0" in="shadowBlurOuter1" type="matrix" result="shadowMatrixOuter1"></feColorMatrix>
            <feMerge>
                <feMergeNode in="shadowMatrixOuter1"></feMergeNode>
                <feMergeNode in="SourceGraphic"></feMergeNode>
            </feMerge>
        </filter>
    </defs>
    <g id="Home" stroke="none" stroke-width="1" fill="none" fill-rule="evenodd" sketch:type="MSPage">
        <g sketch:type="MSArtboardGroup" transform="translate(-430.000000, -27.000000)" id="HEADER-Copy">
            <g sketch:type="MSLayerGroup" transform="translate(0.000000, -10.000000)">
                <g id="LOGO" transform="translate(430.000000, 37.000000)" sketch:type="MSShapeGroup">
                    <path d="M26.1150794,50.989353 C40.19219,50.989353 51.6033048,39.5746452 51.6033048,25.4946765 C51.6033048,11.4147078 40.19219,0 26.1150794,0 C12.0379687,0 0.626853919,11.4147078 0.626853919,25.4946765 C0.626853919,39.5746452 12.0379687,50.989353 26.1150794,50.989353 L26.1150794,50.989353 Z M26.1150794,40.989353 C17.5615211,40.989353 10.6268539,34.0525023 10.6268539,25.4946765 C10.6268539,16.9368507 17.5615211,10 26.1150794,10 C34.6686376,10 41.6033048,16.9368507 41.6033048,25.4946765 C41.6033048,34.0525023 34.6686376,40.989353 26.1150794,40.989353 L26.1150794,40.989353 Z" id="Shape" fill="#81BF58"></path>
                    <path d="M68.2464376,20.7522217 L70.864651,20.7522217 C72.2588428,20.7522217 73.246838,20.5354116 73.8286661,20.101785 C74.4104942,19.6681584 74.7014039,18.9518619 74.7014039,17.952874 C74.7014039,17.063665 74.459894,16.3899072 73.9768669,15.9315804 C73.4938398,15.4732535 72.7802877,15.2440935 71.8361893,15.2440935 L68.2464376,15.2440935 L68.2464376,20.7522217 Z M66.2210272,22.3906634 L66.2210272,13.6879856 L71.8197225,13.6879856 C73.4170053,13.6879856 74.6451382,14.0612282 75.504158,14.8077246 C76.3631778,15.5542211 76.7926813,16.6135714 76.7926813,17.9858075 C76.7926813,18.7981713 76.625271,19.5295622 76.2904454,20.1800021 C75.9556198,20.830442 75.4835776,21.3422784 74.8743048,21.7155266 C74.4955676,21.9515512 74.0248977,22.1230782 73.4622809,22.2301126 C72.8996641,22.337147 72.179251,22.3906634 71.3010199,22.3906634 L66.2210272,22.3906634 Z M80.0059336,22.3906634 L80.0059336,13.6879856 L88.9144458,13.6879856 L88.9144458,15.1699931 L82.0313439,15.1699931 L82.0313439,17.1130697 L86.0492312,17.1130697 L86.0492312,18.5950773 L82.0313439,18.5950773 L82.0313439,20.7522217 L88.9967796,20.7522217 L88.9967796,22.3906634 L80.0059336,22.3906634 Z M92.2182652,22.3906634 L92.2182652,13.6879856 L93.6014723,13.6879856 L99.7271036,18.8173785 C99.9356835,18.9875357 100.11956,19.1480849 100.27874,19.2990309 C100.437919,19.4499769 100.583374,19.6050372 100.715109,19.7642166 C100.682175,19.2757006 100.66022,18.9299023 100.649242,18.7268113 C100.638264,18.5237204 100.632775,18.3672878 100.632775,18.2575089 L100.632775,13.6879856 L102.452351,13.6879856 L102.452351,22.3906634 L101.069144,22.3906634 L94.6800445,17.0142692 C94.526354,16.8770456 94.3918769,16.7535462 94.2766091,16.6437673 C94.1613413,16.5339885 94.0543085,16.4214668 93.9555075,16.306199 C93.9829522,16.5751572 94.0035354,16.8290171 94.0172578,17.0677862 C94.0309801,17.3065553 94.0378412,17.5137598 94.0378412,17.689406 L94.0378412,22.3906634 L92.2182652,22.3906634 Z M110.440961,15.2440935 L110.440961,22.3906634 L108.415551,22.3906634 L108.415551,15.2440935 L104.422364,15.2440935 L104.422364,13.6879856 L114.450615,13.6879856 L114.450615,15.2440935 L110.440961,15.2440935 Z M124.689172,18.916179 L128.501225,18.916179 L126.624015,15.3758275 L124.689172,18.916179 Z M120.794786,22.3906634 L125.718344,13.6879856 L127.669654,13.6879856 L132.65908,22.3906634 L130.386668,22.3906634 L129.341029,20.4887537 L123.824668,20.4887537 L122.811963,22.3906634 L120.794786,22.3906634 Z M142.203798,15.21116 L136.506302,15.21116 L136.506302,17.0801362 L141.932096,17.0801362 C142.782883,17.0801362 143.357841,17.2255911 143.656988,17.5165051 C143.956136,17.8074192 144.105707,18.3480721 144.105707,19.1384801 L144.105707,20.3323195 C144.105707,21.1227275 143.956136,21.6633804 143.656988,21.9542945 C143.357841,22.2452085 142.782883,22.3906634 141.932096,22.3906634 L136.555702,22.3906634 C135.704916,22.3906634 135.129957,22.2452085 134.83081,21.9542945 C134.531662,21.6633804 134.382091,21.1227275 134.382091,20.3323195 L134.382091,20.0935516 L136.168733,19.7230498 L136.168733,20.7522217 L142.319065,20.7522217 L142.319065,18.7679782 L136.893271,18.7679782 C136.047973,18.7679782 135.477131,18.6225234 135.180728,18.3316093 C134.884325,18.0406953 134.736126,17.5000423 134.736126,16.7096344 L134.736126,15.7463294 C134.736126,14.9559214 134.884325,14.4152685 135.180728,14.1243545 C135.477131,13.8334404 136.047973,13.6879856 136.893271,13.6879856 L141.833296,13.6879856 C142.651148,13.6879856 143.215129,13.8279516 143.525254,14.1078877 C143.83538,14.3878239 143.99044,14.8845659 143.99044,15.5981287 L143.99044,15.7792629 L142.203798,16.1991651 L142.203798,15.21116 Z M155.050099,15.21116 L149.352603,15.21116 L149.352603,17.0801362 L154.778398,17.0801362 C155.629184,17.0801362 156.204142,17.2255911 156.50329,17.5165051 C156.802437,17.8074192 156.952009,18.3480721 156.952009,19.1384801 L156.952009,20.3323195 C156.952009,21.1227275 156.802437,21.6633804 156.50329,21.9542945 C156.204142,22.2452085 155.629184,22.3906634 154.778398,22.3906634 L149.402004,22.3906634 C148.551217,22.3906634 147.976259,22.2452085 147.677112,21.9542945 C147.377964,21.6633804 147.228393,21.1227275 147.228393,20.3323195 L147.228393,20.0935516 L149.015035,19.7230498 L149.015035,20.7522217 L155.165366,20.7522217 L155.165366,18.7679782 L149.739572,18.7679782 C148.894275,18.7679782 148.323433,18.6225234 148.02703,18.3316093 C147.730627,18.0406953 147.582428,17.5000423 147.582428,16.7096344 L147.582428,15.7463294 C147.582428,14.9559214 147.730627,14.4152685 148.02703,14.1243545 C148.323433,13.8334404 148.894275,13.6879856 149.739572,13.6879856 L154.679597,13.6879856 C155.49745,13.6879856 156.061431,13.8279516 156.371556,14.1078877 C156.681681,14.3878239 156.836742,14.8845659 156.836742,15.5981287 L156.836742,15.7792629 L155.050099,16.1991651 L155.050099,15.21116 Z M160.65103,22.3906634 L160.65103,13.6879856 L169.559543,13.6879856 L169.559543,15.1699931 L162.676441,15.1699931 L162.676441,17.1130697 L166.694328,17.1130697 L166.694328,18.5950773 L162.676441,18.5950773 L162.676441,20.7522217 L169.641876,20.7522217 L169.641876,22.3906634 L160.65103,22.3906634 Z M176.93065,15.2440935 L176.93065,22.3906634 L174.905239,22.3906634 L174.905239,15.2440935 L170.912052,15.2440935 L170.912052,13.6879856 L180.940303,13.6879856 L180.940303,15.2440935 L176.93065,15.2440935 Z M188.931149,22.3906634 L188.931149,13.6879856 L190.569591,13.6879856 L194.669812,18.9491125 L198.679466,13.6879856 L200.301441,13.6879856 L200.301441,22.3906634 L198.424231,22.3906634 L198.424231,17.0142692 C198.424231,16.9099793 198.431092,16.7782466 198.444815,16.6190672 C198.458537,16.4598878 198.476376,16.2814998 198.498332,16.0838978 C198.388553,16.3089445 198.292498,16.4941936 198.210163,16.6396507 C198.127829,16.7851077 198.05373,16.9044904 197.987862,16.9978025 L194.719212,21.3450247 L194.315777,21.3450247 L191.038893,16.9813357 C190.918137,16.8166674 190.81522,16.6616071 190.730142,16.51615 C190.645063,16.370693 190.57508,16.2293548 190.520191,16.0921312 C190.536658,16.2732664 190.549008,16.4379322 190.557241,16.5861337 C190.565474,16.7343352 190.569591,16.8770456 190.569591,17.0142692 L190.569591,22.3906634 L188.931149,22.3906634 Z M206.289341,18.916179 L210.101393,18.916179 L208.224184,15.3758275 L206.289341,18.916179 Z M202.394954,22.3906634 L207.318513,13.6879856 L209.269822,13.6879856 L214.259248,22.3906634 L211.986836,22.3906634 L210.941198,20.4887537 L205.424836,20.4887537 L204.412131,22.3906634 L202.394954,22.3906634 Z M216.542129,22.3906634 L216.542129,13.6879856 L217.925336,13.6879856 L224.050967,18.8173785 C224.259547,18.9875357 224.443424,19.1480849 224.602603,19.2990309 C224.761783,19.4499769 224.907238,19.6050372 225.038972,19.7642166 C225.006039,19.2757006 224.984083,18.9299023 224.973105,18.7268113 C224.962127,18.5237204 224.956639,18.3672878 224.956639,18.2575089 L224.956639,13.6879856 L226.776215,13.6879856 L226.776215,22.3906634 L225.393007,22.3906634 L219.003908,17.0142692 C218.850218,16.8770456 218.715741,16.7535462 218.600473,16.6437673 C218.485205,16.5339885 218.378172,16.4214668 218.279371,16.306199 C218.306816,16.5751572 218.327399,16.8290171 218.341121,17.0677862 C218.354844,17.3065553 218.361705,17.5137598 218.361705,17.689406 L218.361705,22.3906634 L216.542129,22.3906634 Z M232.945249,18.916179 L236.757301,18.916179 L234.880092,15.3758275 L232.945249,18.916179 Z M229.050862,22.3906634 L233.974421,13.6879856 L235.925731,13.6879856 L240.915156,22.3906634 L238.642744,22.3906634 L237.597106,20.4887537 L232.080744,20.4887537 L231.068039,22.3906634 L229.050862,22.3906634 Z M251.085611,15.2440935 L244.762378,15.2440935 L244.762378,20.7522217 L251.085611,20.7522217 L251.085611,18.8173785 L247.775794,18.8173785 L247.775794,17.3353709 L253.053387,17.3353709 L253.053387,20.3323195 C253.053387,21.1282165 252.905188,21.6702416 252.608785,21.9584112 C252.312382,22.2465808 251.74154,22.3906634 250.896243,22.3906634 L244.894112,22.3906634 C244.048815,22.3906634 243.477973,22.2465808 243.18157,21.9584112 C242.885167,21.6702416 242.736968,21.1282165 242.736968,20.3323195 L242.736968,15.7463294 C242.736968,14.9559214 242.885167,14.4152685 243.18157,14.1243545 C243.477973,13.8334404 244.048815,13.6879856 244.894112,13.6879856 L250.896243,13.6879856 C251.730562,13.6879856 252.29866,13.830696 252.600552,14.1161211 C252.902444,14.4015462 253.053387,14.9174992 253.053387,15.6639957 L253.053387,15.8615967 L251.085611,16.2156318 L251.085611,15.2440935 Z M256.834743,22.3906634 L256.834743,13.6879856 L265.743255,13.6879856 L265.743255,15.1699931 L258.860153,15.1699931 L258.860153,17.1130697 L262.87804,17.1130697 L262.87804,18.5950773 L258.860153,18.5950773 L258.860153,20.7522217 L265.825588,20.7522217 L265.825588,22.3906634 L256.834743,22.3906634 Z M269.047074,22.3906634 L269.047074,13.6879856 L270.685516,13.6879856 L274.785737,18.9491125 L278.795391,13.6879856 L280.417366,13.6879856 L280.417366,22.3906634 L278.540156,22.3906634 L278.540156,17.0142692 C278.540156,16.9099793 278.547017,16.7782466 278.560739,16.6190672 C278.574462,16.4598878 278.592301,16.2814998 278.614256,16.0838978 C278.504478,16.3089445 278.408422,16.4941936 278.326088,16.6396507 C278.243754,16.7851077 278.169654,16.9044904 278.103787,16.9978025 L274.835137,21.3450247 L274.431702,21.3450247 L271.154818,16.9813357 C271.034061,16.8166674 270.931145,16.6616071 270.846067,16.51615 C270.760988,16.370693 270.691005,16.2293548 270.636116,16.0921312 C270.652582,16.2732664 270.664932,16.4379322 270.673166,16.5861337 C270.681399,16.7343352 270.685516,16.8770456 270.685516,17.0142692 L270.685516,22.3906634 L269.047074,22.3906634 Z M284.174021,22.3906634 L284.174021,13.6879856 L293.082533,13.6879856 L293.082533,15.1699931 L286.199431,15.1699931 L286.199431,17.1130697 L290.217318,17.1130697 L290.217318,18.5950773 L286.199431,18.5950773 L286.199431,20.7522217 L293.164867,20.7522217 L293.164867,22.3906634 L284.174021,22.3906634 Z M296.386352,22.3906634 L296.386352,13.6879856 L297.769559,13.6879856 L303.895191,18.8173785 C304.103771,18.9875357 304.287648,19.1480849 304.446827,19.2990309 C304.606006,19.4499769 304.751461,19.6050372 304.883196,19.7642166 C304.850262,19.2757006 304.828307,18.9299023 304.817329,18.7268113 C304.806351,18.5237204 304.800862,18.3672878 304.800862,18.2575089 L304.800862,13.6879856 L306.620438,13.6879856 L306.620438,22.3906634 L305.237231,22.3906634 L298.848132,17.0142692 C298.694441,16.8770456 298.559964,16.7535462 298.444696,16.6437673 C298.329428,16.5339885 298.222396,16.4214668 298.123595,16.306199 C298.151039,16.5751572 298.171623,16.8290171 298.185345,17.0677862 C298.199067,17.3065553 298.205928,17.5137598 298.205928,17.689406 L298.205928,22.3906634 L296.386352,22.3906634 Z M314.609048,15.2440935 L314.609048,22.3906634 L312.583638,22.3906634 L312.583638,15.2440935 L308.590451,15.2440935 L308.590451,13.6879856 L318.618702,13.6879856 L318.618702,15.2440935 L314.609048,15.2440935 Z" id="DENT-ASSET-MANAGEMEN" fill="#FFFFFF" filter="url(#filter-1)"></path>
                    <path d="M71.1028859,31.2416818 L67.4136905,31.2416818 L67.4136905,33.2030262 L71.1028859,33.2030262 C71.3875269,33.2030262 71.5821027,33.1618873 71.6866193,33.0796083 C71.791136,32.9973292 71.8433935,32.8516753 71.8433935,32.6426421 L71.8433935,31.7953947 C71.8433935,31.590809 71.791136,31.4473787 71.6866193,31.3650997 C71.5821027,31.2828207 71.3875269,31.2416818 71.1028859,31.2416818 L71.1028859,31.2416818 Z M65.7992505,37.0723451 L65.7992505,30.020845 L71.830051,30.020845 C72.3904379,30.020845 72.7962676,30.1286956 73.0475522,30.3444001 C73.2988368,30.5601046 73.4244772,30.9081174 73.4244772,31.3884491 L73.4244772,33.0429164 C73.4244772,33.5188006 73.2988368,33.8657015 73.0475522,34.0836298 C72.7962676,34.301558 72.3904379,34.4105205 71.830051,34.4105205 L70.90942,34.4105205 L74.1649848,37.0723451 L71.8100373,37.0723451 L68.9680893,34.4105205 L67.4136905,34.4105205 L67.4136905,37.0723451 L65.7992505,37.0723451 Z M75.9995757,37.0723451 L75.9995757,31.2950517 L82.1971571,31.2950517 L82.1971571,32.3157513 L77.4205497,32.3157513 L77.4205497,33.5766156 L80.2024565,33.5766156 L80.2024565,34.5706303 L77.4205497,34.5706303 L77.4205497,35.9916043 L82.2705408,35.9916043 L82.2705408,37.0723451 L75.9995757,37.0723451 Z M89.9691511,32.3557788 L85.5728043,32.3557788 L85.5728043,35.9649193 L89.9691511,35.9649193 L89.9691511,34.7374113 L87.6742447,34.7374113 L87.6742447,33.7100404 L91.3500977,33.7100404 L91.3500977,35.704741 C91.3500977,36.2339953 91.2466945,36.5942386 91.039885,36.7854818 C90.8330756,36.9767249 90.4361408,37.0723451 89.8490688,37.0723451 L85.6662016,37.0723451 C85.0791296,37.0723451 84.6821949,36.9767249 84.4753854,36.7854818 C84.2685759,36.5942386 84.1651728,36.2339953 84.1651728,35.704741 L84.1651728,32.6559846 C84.1651728,32.1311778 84.2685759,31.7731582 84.4753854,31.581915 C84.6821949,31.3906718 85.0791296,31.2950517 85.6662016,31.2950517 L89.8490688,31.2950517 C90.4316933,31.2950517 90.8275162,31.3884481 91.0365494,31.5752438 C91.2455826,31.7620394 91.3500977,32.1000455 91.3500977,32.5892722 L91.3500977,32.7427107 L89.9691511,32.976204 L89.9691511,32.3557788 Z M93.7584151,37.0723451 L93.7584151,31.2950517 L95.1593754,31.2950517 L95.1593754,37.0723451 L93.7584151,37.0723451 Z M103.071465,32.3290938 L99.0954067,32.3290938 L99.0954067,33.5499306 L102.857986,33.5499306 C103.449505,33.5499306 103.847552,33.6444389 104.052138,33.8334583 C104.256723,34.0224777 104.359015,34.3816092 104.359015,34.9108635 L104.359015,35.704741 C104.359015,36.2339953 104.2545,36.5942386 104.045466,36.7854818 C103.836433,36.9767249 103.44061,37.0723451 102.857986,37.0723451 L99.1087491,37.0723451 C98.5127821,37.0723451 98.1091762,36.9767249 97.8979192,36.7854818 C97.6866622,36.5942386 97.5810353,36.2339953 97.5810353,35.704741 L97.5810353,35.5446312 L98.8352283,35.3111379 L98.8352283,35.9916043 L103.084808,35.9916043 L103.084808,34.6706989 L99.3422425,34.6706989 C98.750723,34.6706989 98.3504526,34.5739669 98.1414194,34.3805 C97.9323862,34.187033 97.8278712,33.8279016 97.8278712,33.3030948 L97.8278712,32.6559846 C97.8278712,32.1356253 97.9323862,31.7787175 98.1414194,31.5852506 C98.3504526,31.3917837 98.750723,31.2950517 99.3422425,31.2950517 L102.77126,31.2950517 C103.353884,31.2950517 103.753043,31.3873363 103.968747,31.5719081 C104.184452,31.75648 104.292302,32.0822556 104.292302,32.5492447 L104.292302,32.6893407 L103.071465,32.9495191 L103.071465,32.3290938 Z M110.236377,32.3290938 L110.236377,37.0723451 L108.828745,37.0723451 L108.828745,32.3290938 L106.040167,32.3290938 L106.040167,31.2950517 L113.031626,31.2950517 L113.031626,32.3290938 L110.236377,32.3290938 Z M114.852874,37.0723451 L114.852874,31.2950517 L121.050456,31.2950517 L121.050456,32.3157513 L116.273848,32.3157513 L116.273848,33.5766156 L119.055755,33.5766156 L119.055755,34.5706303 L116.273848,34.5706303 L116.273848,35.9916043 L121.123839,35.9916043 L121.123839,37.0723451 L114.852874,37.0723451 Z M127.761723,32.2890664 L124.546185,32.2890664 L124.546185,33.8901639 L127.761723,33.8901639 C128.006336,33.8901639 128.174227,33.8545843 128.265401,33.783424 C128.356575,33.7122638 128.402162,33.5921827 128.402162,33.4231771 L128.402162,32.7560531 C128.402162,32.5870476 128.356575,32.4669665 128.265401,32.3958062 C128.174227,32.324646 128.006336,32.2890664 127.761723,32.2890664 L127.761723,32.2890664 Z M123.158567,37.0723451 L123.158567,31.2950517 L128.362134,31.2950517 C128.838018,31.2950517 129.182696,31.3828888 129.396176,31.5585657 C129.609657,31.7342425 129.716396,32.0199911 129.716396,32.4158199 L129.716396,33.7767528 C129.716396,34.1681341 129.609657,34.4505471 129.396176,34.6240002 C129.182696,34.7974533 128.838018,34.8841785 128.362134,34.8841785 L127.568257,34.8841785 L130.316807,37.0723451 L128.295422,37.0723451 L125.873762,34.8841785 L124.546185,34.8841785 L124.546185,37.0723451 L123.158567,37.0723451 Z M132.037987,37.0723451 L132.037987,31.2950517 L138.235569,31.2950517 L138.235569,32.3157513 L133.458961,32.3157513 L133.458961,33.5766156 L136.240868,33.5766156 L136.240868,34.5706303 L133.458961,34.5706303 L133.458961,35.9916043 L138.308952,35.9916043 L138.308952,37.0723451 L132.037987,37.0723451 Z M141.764654,35.9916043 L143.579231,35.9916043 C144.571027,35.9916043 145.264829,35.8470622 145.660658,35.5579737 C146.056487,35.2688852 146.254398,34.7818896 146.254398,34.0969723 C146.254398,33.5010052 146.089843,33.0573722 145.760727,32.76606 C145.431611,32.4747478 144.926825,32.3290938 144.246355,32.3290938 L141.764654,32.3290938 L141.764654,35.9916043 Z M140.34368,37.0723451 L140.34368,31.2950517 L144.233013,31.2950517 C145.349339,31.2950517 146.206585,31.542997 146.804776,32.0388949 C147.402966,32.5347928 147.702057,33.243049 147.702057,34.1636847 C147.702057,35.133243 147.385177,35.8604008 146.751406,36.34518 C146.117635,36.8299591 145.160322,37.0723451 143.879437,37.0723451 L140.34368,37.0723451 Z M155.62749,37.0723451 L155.62749,30.020845 L157.268615,30.020845 L157.268615,37.0723451 L155.62749,37.0723451 Z M160.357399,37.0723451 L160.357399,31.2950517 L161.324728,31.2950517 L166.228089,35.1310144 L166.228089,31.2950517 L167.502296,31.2950517 L167.502296,37.0723451 L166.528295,37.0723451 L161.638277,33.1763412 L161.638277,37.0723451 L160.357399,37.0723451 Z M172.785918,37.0723451 L169.290188,31.2950517 L170.884614,31.2950517 L173.332959,35.4845901 L175.641208,31.2950517 L177.10221,31.2950517 L173.753247,37.0723451 L172.785918,37.0723451 Z M178.71665,37.0723451 L178.71665,31.2950517 L184.914231,31.2950517 L184.914231,32.3157513 L180.137624,32.3157513 L180.137624,33.5766156 L182.91953,33.5766156 L182.91953,34.5706303 L180.137624,34.5706303 L180.137624,35.9916043 L184.987615,35.9916043 L184.987615,37.0723451 L178.71665,37.0723451 Z M192.359334,32.3290938 L188.383276,32.3290938 L188.383276,33.5499306 L192.145855,33.5499306 C192.737374,33.5499306 193.135421,33.6444389 193.340007,33.8334583 C193.544592,34.0224777 193.646884,34.3816092 193.646884,34.9108635 L193.646884,35.704741 C193.646884,36.2339953 193.542368,36.5942386 193.333335,36.7854818 C193.124302,36.9767249 192.728479,37.0723451 192.145855,37.0723451 L188.396618,37.0723451 C187.800651,37.0723451 187.397045,36.9767249 187.185788,36.7854818 C186.974531,36.5942386 186.868904,36.2339953 186.868904,35.704741 L186.868904,35.5446312 L188.123097,35.3111379 L188.123097,35.9916043 L192.372677,35.9916043 L192.372677,34.6706989 L188.630111,34.6706989 C188.038592,34.6706989 187.638322,34.5739669 187.429288,34.3805 C187.220255,34.187033 187.11574,33.8279016 187.11574,33.3030948 L187.11574,32.6559846 C187.11574,32.1356253 187.220255,31.7787175 187.429288,31.5852506 C187.638322,31.3917837 188.038592,31.2950517 188.630111,31.2950517 L192.059129,31.2950517 C192.641753,31.2950517 193.040912,31.3873363 193.256616,31.5719081 C193.472321,31.75648 193.580171,32.0822556 193.580171,32.5492447 L193.580171,32.6893407 L192.359334,32.9495191 L192.359334,32.3290938 Z M199.524245,32.3290938 L199.524245,37.0723451 L198.116614,37.0723451 L198.116614,32.3290938 L195.328036,32.3290938 L195.328036,31.2950517 L202.319495,31.2950517 L202.319495,32.3290938 L199.524245,32.3290938 Z M204.140743,37.0723451 L204.140743,31.2950517 L205.268183,31.2950517 L208.096788,34.7240688 L210.912051,31.2950517 L212.046162,31.2950517 L212.046162,37.0723451 L210.738599,37.0723451 L210.738599,33.0962864 L208.156829,36.3785362 L207.883309,36.3785362 L205.268183,33.1896837 L205.268183,37.0723451 L204.140743,37.0723451 Z M214.62126,37.0723451 L214.62126,31.2950517 L220.818842,31.2950517 L220.818842,32.3157513 L216.042234,32.3157513 L216.042234,33.5766156 L218.824141,33.5766156 L218.824141,34.5706303 L216.042234,34.5706303 L216.042234,35.9916043 L220.892225,35.9916043 L220.892225,37.0723451 L214.62126,37.0723451 Z M222.926954,37.0723451 L222.926954,31.2950517 L223.894283,31.2950517 L228.797644,35.1310144 L228.797644,31.2950517 L230.071851,31.2950517 L230.071851,37.0723451 L229.09785,37.0723451 L224.207831,33.1763412 L224.207831,37.0723451 L222.926954,37.0723451 Z M236.09598,32.3290938 L236.09598,37.0723451 L234.688349,37.0723451 L234.688349,32.3290938 L231.899771,32.3290938 L231.899771,31.2950517 L238.89123,31.2950517 L238.89123,32.3290938 L236.09598,32.3290938 Z M248.324362,34.257082 L251.413146,34.257082 L249.892103,31.3884491 L248.324362,34.257082 Z M245.168866,37.0723451 L249.158267,30.020845 L250.739351,30.020845 L254.782122,37.0723451 L252.94086,37.0723451 L252.093612,35.5312888 L247.623882,35.5312888 L246.80332,37.0723451 L245.168866,37.0723451 Z M257.657426,35.9916043 L259.472003,35.9916043 C260.463799,35.9916043 261.157601,35.8470622 261.55343,35.5579737 C261.949259,35.2688852 262.14717,34.7818896 262.14717,34.0969723 C262.14717,33.5010052 261.982615,33.0573722 261.653499,32.76606 C261.324382,32.4747478 260.819597,32.3290938 260.139127,32.3290938 L257.657426,32.3290938 L257.657426,35.9916043 Z M256.236452,37.0723451 L256.236452,31.2950517 L260.125785,31.2950517 C261.242111,31.2950517 262.099357,31.542997 262.697548,32.0388949 C263.295738,32.5347928 263.594829,33.243049 263.594829,34.1636847 C263.594829,35.133243 263.277949,35.8604008 262.644178,36.34518 C262.010407,36.8299591 261.053093,37.0723451 259.772209,37.0723451 L256.236452,37.0723451 Z M268.177971,37.0723451 L264.682241,31.2950517 L266.276668,31.2950517 L268.725012,35.4845901 L271.033261,31.2950517 L272.494263,31.2950517 L269.1453,37.0723451 L268.177971,37.0723451 Z M274.108703,37.0723451 L274.108703,31.2950517 L275.509663,31.2950517 L275.509663,37.0723451 L274.108703,37.0723451 Z M283.421753,32.3290938 L279.445694,32.3290938 L279.445694,33.5499306 L283.208273,33.5499306 C283.799793,33.5499306 284.197839,33.6444389 284.402425,33.8334583 C284.607011,34.0224777 284.709302,34.3816092 284.709302,34.9108635 L284.709302,35.704741 C284.709302,36.2339953 284.604787,36.5942386 284.395754,36.7854818 C284.186721,36.9767249 283.790898,37.0723451 283.208273,37.0723451 L279.459037,37.0723451 C278.86307,37.0723451 278.459464,36.9767249 278.248207,36.7854818 C278.03695,36.5942386 277.931323,36.2339953 277.931323,35.704741 L277.931323,35.5446312 L279.185516,35.3111379 L279.185516,35.9916043 L283.435095,35.9916043 L283.435095,34.6706989 L279.69253,34.6706989 C279.101011,34.6706989 278.70074,34.5739669 278.491707,34.3805 C278.282674,34.187033 278.178159,33.8279016 278.178159,33.3030948 L278.178159,32.6559846 C278.178159,32.1356253 278.282674,31.7787175 278.491707,31.5852506 C278.70074,31.3917837 279.101011,31.2950517 279.69253,31.2950517 L283.121547,31.2950517 C283.704172,31.2950517 284.10333,31.3873363 284.319035,31.5719081 C284.534739,31.75648 284.64259,32.0822556 284.64259,32.5492447 L284.64259,32.6893407 L283.421753,32.9495191 L283.421753,32.3290938 Z M288.41184,35.9649193 L293.068365,35.9649193 L293.068365,32.3557788 L288.41184,32.3557788 L288.41184,35.9649193 Z M287.004209,32.6559846 C287.004209,32.1311778 287.1065,31.7731582 287.311086,31.581915 C287.515671,31.3906718 287.913718,31.2950517 288.505237,31.2950517 L292.974968,31.2950517 C293.570935,31.2950517 293.970093,31.3906718 294.172455,31.581915 C294.374817,31.7731582 294.475997,32.1311778 294.475997,32.6559846 L294.475997,35.704741 C294.475997,36.2339953 294.372594,36.5942386 294.165784,36.7854818 C293.958975,36.9767249 293.56204,37.0723451 292.974968,37.0723451 L288.505237,37.0723451 C287.913718,37.0723451 287.515671,36.9767249 287.311086,36.7854818 C287.1065,36.5942386 287.004209,36.2339953 287.004209,35.704741 L287.004209,32.6559846 Z M301.514154,32.2890664 L298.298617,32.2890664 L298.298617,33.8901639 L301.514154,33.8901639 C301.758768,33.8901639 301.926659,33.8545843 302.017833,33.783424 C302.109007,33.7122638 302.154593,33.5921827 302.154593,33.4231771 L302.154593,32.7560531 C302.154593,32.5870476 302.109007,32.4669665 302.017833,32.3958062 C301.926659,32.324646 301.758768,32.2890664 301.514154,32.2890664 L301.514154,32.2890664 Z M296.910999,37.0723451 L296.910999,31.2950517 L302.114566,31.2950517 C302.59045,31.2950517 302.935127,31.3828888 303.148608,31.5585657 C303.362089,31.7342425 303.468828,32.0199911 303.468828,32.4158199 L303.468828,33.7767528 C303.468828,34.1681341 303.362089,34.4505471 303.148608,34.6240002 C302.935127,34.7974533 302.59045,34.8841785 302.114566,34.8841785 L301.320688,34.8841785 L304.069239,37.0723451 L302.047854,37.0723451 L299.626194,34.8841785 L298.298617,34.8841785 L298.298617,37.0723451 L296.910999,37.0723451 Z" id="Registered-Investmen" fill="#FFFFFF" filter="url(#filter-2)"></path>
                    <path d="M54.316228,42.800697 L53.7685799,42.800697 L53.7685799,43.9766546 L54.3332093,43.9766546 C54.6530261,43.9766546 54.8822719,43.932079 55.0209535,43.8429266 C55.1596351,43.7537741 55.2289748,43.6101417 55.2289748,43.4120252 C55.2289748,43.1969272 55.1568049,43.0412665 55.0124628,42.9450384 C54.8681207,42.8488103 54.6360448,42.800697 54.316228,42.800697 L54.316228,42.800697 Z M54.4350973,42.3676729 C54.9275586,42.3676729 55.2976065,42.449041 55.5452522,42.6117797 C55.792898,42.7745183 55.916719,43.0172075 55.916719,43.3398545 C55.916719,43.5917456 55.8459641,43.80118 55.7044523,43.9681639 C55.5629404,44.1351479 55.3634117,44.2441104 55.1058602,44.2950547 L55.8997376,45.912527 L55.1483135,45.912527 L54.4266067,44.401188 L53.7685799,44.401188 L53.7685799,45.912527 L53.0978171,45.912527 L53.0978171,42.3676729 L54.4350973,42.3676729 Z M57.0714499,44.2271293 C57.0714499,43.8478776 57.0056479,43.4926882 56.8740418,43.1615504 C56.7424358,42.8304127 56.5506901,42.5389027 56.2987991,42.2870116 C56.0384173,42.0237996 55.7433695,41.8235633 55.4136469,41.6862968 C55.0839243,41.5490303 54.7322726,41.4803981 54.3586813,41.4803981 C53.9907505,41.4803981 53.6440517,41.5469077 53.3185745,41.6799288 C52.9930972,41.8129499 52.7086627,42.0039881 52.4652623,42.2530489 C52.19922,42.5219214 51.9947385,42.8247522 51.8518115,43.1615504 C51.7088845,43.4983486 51.6374221,43.8450475 51.6374221,44.2016573 C51.6374221,44.5554369 51.7060543,44.8957678 51.8433208,45.2226602 C51.9805873,45.5495526 52.1779934,45.8431852 52.4355449,46.103567 C52.6902663,46.3639488 52.9824838,46.5641851 53.3122064,46.7042818 C53.6419291,46.8443786 53.9822599,46.9144259 54.3332093,46.9144259 C54.7011401,46.9144259 55.0499616,46.8465012 55.3796842,46.7106498 C55.7094068,46.5747985 56.010115,46.3766848 56.2818177,46.116303 C56.536539,45.8672422 56.7318225,45.580685 56.8676738,45.2566229 C57.0035252,44.9325607 57.0714499,44.5893997 57.0714499,44.2271293 L57.0714499,44.2271293 Z M54.3501907,41.072846 C54.7775564,41.072846 55.1822743,41.1520915 55.5643562,41.3105847 C55.9464382,41.469078 56.2860616,41.6997389 56.5832365,42.0025742 C56.8747509,42.2969189 57.0983362,42.633712 57.2539993,43.0129637 C57.4096623,43.3922155 57.4874926,43.7884427 57.4874926,44.2016573 C57.4874926,44.6290231 57.4096623,45.0302032 57.2539993,45.4052096 C57.0983362,45.780216 56.8719207,46.1120563 56.5747458,46.4007404 C56.26625,46.7007456 55.9202587,46.9306989 55.5367616,47.0906072 C55.1532645,47.2505156 54.7577448,47.3304686 54.3501907,47.3304686 C53.9341458,47.3304686 53.5372111,47.2505156 53.1593744,47.0906072 C52.7815378,46.9306989 52.442622,46.6979154 52.1426169,46.3922498 C51.845442,46.0922447 51.6190264,45.754744 51.4633634,45.3797376 C51.3077004,45.0047312 51.22987,44.6120417 51.22987,44.2016573 C51.22987,43.7884427 51.3112381,43.3886778 51.4739767,43.0023504 C51.6367154,42.6160231 51.870914,42.2686167 52.1765796,41.9601209 C52.4624335,41.6686065 52.7900285,41.4478513 53.1593744,41.2978487 C53.5287203,41.1478462 53.9256551,41.072846 54.3501907,41.072846 L54.3501907,41.072846 Z" id="®" opacity="0.462278451" fill="#FFFFFF"></path>
                </g>
            </g>
        </g>
    </g>
</svg>