<?xml version="1.0" encoding="UTF-8" standalone="no"?>
<svg width="307px" height="40px" viewBox="0 0 307 40" version="1.1" xmlns="http://www.w3.org/2000/svg" xmlns:xlink="http://www.w3.org/1999/xlink" xmlns:sketch="http://www.bohemiancoding.com/sketch/ns">
    <!-- Generator: Sketch 3.4 (15575) - http://www.bohemiancoding.com/sketch -->
    <title>LOGO</title>
    <desc>Created with Sketch.</desc>
    <defs></defs>
    <g id="Home" stroke="none" stroke-width="1" fill="none" fill-rule="evenodd" sketch:type="MSPage">
        <g sketch:type="MSArtboardGroup" transform="translate(-1233.000000, -1802.000000)" id="TEAM">
            <g sketch:type="MSLayerGroup" transform="translate(-174.000000, 1310.000000)">
                <g id="LOGO" transform="translate(1407.000000, 492.000000)" sketch:type="MSShapeGroup">
                    <path d="M56.2484217,16.3615583 L58.8666351,16.3615583 C60.260827,16.3615583 61.2488221,16.1447482 61.8306503,15.7111216 C62.4124784,15.277495 62.703388,14.5611985 62.703388,13.5622106 C62.703388,12.6730017 62.4618781,11.9992438 61.978851,11.540917 C61.4958239,11.0825901 60.7822718,10.8534301 59.8381734,10.8534301 L56.2484217,10.8534301 L56.2484217,16.3615583 Z M54.2230114,18 L54.2230114,9.29732218 L59.8217066,9.29732218 C61.4189895,9.29732218 62.6471224,9.6705648 63.5061422,10.4170612 C64.3651619,11.1635577 64.7946654,12.2229081 64.7946654,13.5951441 C64.7946654,14.4075079 64.6272551,15.1388988 64.2924295,15.7893387 C63.9576039,16.4397786 63.4855618,16.951615 62.8762889,17.3248632 C62.4975518,17.5608878 62.0268818,17.7324148 61.464265,17.8394492 C60.9016482,17.9464836 60.1812351,18 59.303004,18 L54.2230114,18 Z M68.0079177,18 L68.0079177,9.29732218 L76.9164299,9.29732218 L76.9164299,10.7793298 L70.0333281,10.7793298 L70.0333281,12.7224064 L74.0512153,12.7224064 L74.0512153,14.2044139 L70.0333281,14.2044139 L70.0333281,16.3615583 L76.9987637,16.3615583 L76.9987637,18 L68.0079177,18 Z M80.2202494,18 L80.2202494,9.29732218 L81.6034564,9.29732218 L87.7290878,14.4267151 C87.9376676,14.5968723 88.1215445,14.7574216 88.2807239,14.9083675 C88.4399033,15.0593135 88.5853581,15.2143739 88.7170928,15.3735532 C88.6841591,14.8850372 88.6622037,14.5392389 88.6512258,14.3361479 C88.6402479,14.133057 88.634759,13.9766244 88.634759,13.8668455 L88.634759,9.29732218 L90.454335,9.29732218 L90.454335,18 L89.0711279,18 L82.6820286,12.6236059 C82.5283382,12.4863822 82.3938611,12.3628828 82.2785932,12.253104 C82.1633254,12.1433251 82.0562926,12.0308034 81.9574916,11.9155356 C81.9849363,12.1844938 82.0055195,12.4383537 82.0192419,12.6771228 C82.0329643,12.9158919 82.0398253,13.1230964 82.0398253,13.2987426 L82.0398253,18 L80.2202494,18 Z M98.4429451,10.8534301 L98.4429451,18 L96.4175347,18 L96.4175347,10.8534301 L92.4243476,10.8534301 L92.4243476,9.29732218 L102.452599,9.29732218 L102.452599,10.8534301 L98.4429451,10.8534301 Z M112.691156,14.5255156 L116.503209,14.5255156 L114.626,10.9851641 L112.691156,14.5255156 Z M108.79677,18 L113.720328,9.29732218 L115.671638,9.29732218 L120.661064,18 L118.388652,18 L117.343013,16.0980903 L111.826652,16.0980903 L110.813947,18 L108.79677,18 Z M130.205782,10.8204966 L124.508286,10.8204966 L124.508286,12.6894729 L129.93408,12.6894729 C130.784867,12.6894729 131.359825,12.8349277 131.658973,13.1258418 C131.95812,13.4167558 132.107691,13.9574087 132.107691,14.7478167 L132.107691,15.9416561 C132.107691,16.7320641 131.95812,17.272717 131.658973,17.5636311 C131.359825,17.8545452 130.784867,18 129.93408,18 L124.557686,18 C123.7069,18 123.131942,17.8545452 122.832794,17.5636311 C122.533647,17.272717 122.384075,16.7320641 122.384075,15.9416561 L122.384075,15.7028883 L124.170718,15.3323864 L124.170718,16.3615583 L130.321049,16.3615583 L130.321049,14.3773148 L124.895255,14.3773148 C124.049957,14.3773148 123.479116,14.23186 123.182713,13.9409459 C122.88631,13.6500319 122.73811,13.109379 122.73811,12.318971 L122.73811,11.355666 C122.73811,10.565258 122.88631,10.0246051 123.182713,9.73369108 C123.479116,9.44277702 124.049957,9.29732218 124.895255,9.29732218 L129.83528,9.29732218 C130.653133,9.29732218 131.217113,9.43728816 131.527239,9.71722433 C131.837364,9.99716049 131.992424,10.4939025 131.992424,11.2074653 L131.992424,11.3885995 L130.205782,11.8085017 L130.205782,10.8204966 Z M143.052083,10.8204966 L137.354588,10.8204966 L137.354588,12.6894729 L142.780382,12.6894729 C143.631168,12.6894729 144.206127,12.8349277 144.505274,13.1258418 C144.804422,13.4167558 144.953993,13.9574087 144.953993,14.7478167 L144.953993,15.9416561 C144.953993,16.7320641 144.804422,17.272717 144.505274,17.5636311 C144.206127,17.8545452 143.631168,18 142.780382,18 L137.403988,18 C136.553201,18 135.978243,17.8545452 135.679096,17.5636311 C135.379948,17.272717 135.230377,16.7320641 135.230377,15.9416561 L135.230377,15.7028883 L137.017019,15.3323864 L137.017019,16.3615583 L143.167351,16.3615583 L143.167351,14.3773148 L137.741556,14.3773148 C136.896259,14.3773148 136.325417,14.23186 136.029014,13.9409459 C135.732611,13.6500319 135.584412,13.109379 135.584412,12.318971 L135.584412,11.355666 C135.584412,10.565258 135.732611,10.0246051 136.029014,9.73369108 C136.325417,9.44277702 136.896259,9.29732218 137.741556,9.29732218 L142.681581,9.29732218 C143.499434,9.29732218 144.063415,9.43728816 144.37354,9.71722433 C144.683665,9.99716049 144.838726,10.4939025 144.838726,11.2074653 L144.838726,11.3885995 L143.052083,11.8085017 L143.052083,10.8204966 Z M148.653015,18 L148.653015,9.29732218 L157.561527,9.29732218 L157.561527,10.7793298 L150.678425,10.7793298 L150.678425,12.7224064 L154.696312,12.7224064 L154.696312,14.2044139 L150.678425,14.2044139 L150.678425,16.3615583 L157.64386,16.3615583 L157.64386,18 L148.653015,18 Z M164.932634,10.8534301 L164.932634,18 L162.907223,18 L162.907223,10.8534301 L158.914036,10.8534301 L158.914036,9.29732218 L168.942287,9.29732218 L168.942287,10.8534301 L164.932634,10.8534301 Z M176.933133,18 L176.933133,9.29732218 L178.571575,9.29732218 L182.671796,14.5584491 L186.68145,9.29732218 L188.303425,9.29732218 L188.303425,18 L186.426215,18 L186.426215,12.6236059 C186.426215,12.5193159 186.433076,12.3875832 186.446799,12.2284038 C186.460521,12.0692244 186.47836,11.8908364 186.500316,11.6932344 C186.390537,11.9182811 186.294482,12.1035302 186.212148,12.2489873 C186.129813,12.3944443 186.055714,12.513827 185.989846,12.6071391 L182.721196,16.9543613 L182.317761,16.9543613 L179.040878,12.5906723 C178.920121,12.426004 178.817205,12.2709437 178.732126,12.1254866 C178.647047,11.9800296 178.577064,11.8386914 178.522175,11.7014678 C178.538642,11.882603 178.550992,12.0472688 178.559225,12.1954703 C178.567458,12.3436718 178.571575,12.4863822 178.571575,12.6236059 L178.571575,18 L176.933133,18 Z M194.291325,14.5255156 L198.103378,14.5255156 L196.226168,10.9851641 L194.291325,14.5255156 Z M190.396938,18 L195.320497,9.29732218 L197.271807,9.29732218 L202.261232,18 L199.98882,18 L198.943182,16.0980903 L193.42682,16.0980903 L192.414115,18 L190.396938,18 Z M204.544113,18 L204.544113,9.29732218 L205.92732,9.29732218 L212.052951,14.4267151 C212.261531,14.5968723 212.445408,14.7574216 212.604588,14.9083675 C212.763767,15.0593135 212.909222,15.2143739 213.040956,15.3735532 C213.008023,14.8850372 212.986067,14.5392389 212.975089,14.3361479 C212.964112,14.133057 212.958623,13.9766244 212.958623,13.8668455 L212.958623,9.29732218 L214.778199,9.29732218 L214.778199,18 L213.394992,18 L207.005892,12.6236059 C206.852202,12.4863822 206.717725,12.3628828 206.602457,12.253104 C206.487189,12.1433251 206.380156,12.0308034 206.281355,11.9155356 C206.3088,12.1844938 206.329383,12.4383537 206.343106,12.6771228 C206.356828,12.9158919 206.363689,13.1230964 206.363689,13.2987426 L206.363689,18 L204.544113,18 Z M220.947233,14.5255156 L224.759286,14.5255156 L222.882076,10.9851641 L220.947233,14.5255156 Z M217.052846,18 L221.976405,9.29732218 L223.927715,9.29732218 L228.91714,18 L226.644729,18 L225.59909,16.0980903 L220.082728,16.0980903 L219.070023,18 L217.052846,18 Z M239.087595,10.8534301 L232.764362,10.8534301 L232.764362,16.3615583 L239.087595,16.3615583 L239.087595,14.4267151 L235.777778,14.4267151 L235.777778,12.9447075 L241.055371,12.9447075 L241.055371,15.9416561 C241.055371,16.7375531 240.907172,17.2795782 240.610769,17.5677478 C240.314366,17.8559174 239.743524,18 238.898227,18 L232.896096,18 C232.050799,18 231.479957,17.8559174 231.183554,17.5677478 C230.887151,17.2795782 230.738952,16.7375531 230.738952,15.9416561 L230.738952,11.355666 C230.738952,10.565258 230.887151,10.0246051 231.183554,9.73369108 C231.479957,9.44277702 232.050799,9.29732218 232.896096,9.29732218 L238.898227,9.29732218 C239.732547,9.29732218 240.300644,9.44003259 240.602536,9.7254577 C240.904428,10.0108828 241.055371,10.5268358 241.055371,11.2733323 L241.055371,11.4709333 L239.087595,11.8249684 L239.087595,10.8534301 Z M244.836727,18 L244.836727,9.29732218 L253.745239,9.29732218 L253.745239,10.7793298 L246.862137,10.7793298 L246.862137,12.7224064 L250.880024,12.7224064 L250.880024,14.2044139 L246.862137,14.2044139 L246.862137,16.3615583 L253.827573,16.3615583 L253.827573,18 L244.836727,18 Z M257.049058,18 L257.049058,9.29732218 L258.6875,9.29732218 L262.787721,14.5584491 L266.797375,9.29732218 L268.41935,9.29732218 L268.41935,18 L266.54214,18 L266.54214,12.6236059 C266.54214,12.5193159 266.549001,12.3875832 266.562724,12.2284038 C266.576446,12.0692244 266.594285,11.8908364 266.616241,11.6932344 C266.506462,11.9182811 266.410407,12.1035302 266.328072,12.2489873 C266.245738,12.3944443 266.171639,12.513827 266.105771,12.6071391 L262.837121,16.9543613 L262.433686,16.9543613 L259.156802,12.5906723 C259.036046,12.426004 258.933129,12.2709437 258.848051,12.1254866 C258.762972,11.9800296 258.692989,11.8386914 258.6381,11.7014678 C258.654567,11.882603 258.666917,12.0472688 258.67515,12.1954703 C258.683383,12.3436718 258.6875,12.4863822 258.6875,12.6236059 L258.6875,18 L257.049058,18 Z M272.176005,18 L272.176005,9.29732218 L281.084517,9.29732218 L281.084517,10.7793298 L274.201415,10.7793298 L274.201415,12.7224064 L278.219302,12.7224064 L278.219302,14.2044139 L274.201415,14.2044139 L274.201415,16.3615583 L281.166851,16.3615583 L281.166851,18 L272.176005,18 Z M284.388336,18 L284.388336,9.29732218 L285.771544,9.29732218 L291.897175,14.4267151 C292.105755,14.5968723 292.289632,14.7574216 292.448811,14.9083675 C292.60799,15.0593135 292.753445,15.2143739 292.88518,15.3735532 C292.852246,14.8850372 292.830291,14.5392389 292.819313,14.3361479 C292.808335,14.133057 292.802846,13.9766244 292.802846,13.8668455 L292.802846,9.29732218 L294.622422,9.29732218 L294.622422,18 L293.239215,18 L286.850116,12.6236059 C286.696425,12.4863822 286.561948,12.3628828 286.44668,12.253104 C286.331413,12.1433251 286.22438,12.0308034 286.125579,11.9155356 C286.153023,12.1844938 286.173607,12.4383537 286.187329,12.6771228 C286.201051,12.9158919 286.207912,13.1230964 286.207912,13.2987426 L286.207912,18 L284.388336,18 Z M302.611032,10.8534301 L302.611032,18 L300.585622,18 L300.585622,10.8534301 L296.592435,10.8534301 L296.592435,9.29732218 L306.620686,9.29732218 L306.620686,10.8534301 L302.611032,10.8534301 Z" id="DENT-ASSET-MANAGEMEN-Copy" fill="#FFFFFF"></path>
                    <path d="M58.60487,27.1693367 L54.9156746,27.1693367 L54.9156746,29.1306811 L58.60487,29.1306811 C58.889511,29.1306811 59.0840869,29.0895422 59.1886035,29.0072632 C59.2931201,28.9249842 59.3453776,28.7793302 59.3453776,28.570297 L59.3453776,27.7230496 C59.3453776,27.5184639 59.2931201,27.3750337 59.1886035,27.2927546 C59.0840869,27.2104756 58.889511,27.1693367 58.60487,27.1693367 L58.60487,27.1693367 Z M53.3012347,33 L53.3012347,25.9484999 L59.3320351,25.9484999 C59.892422,25.9484999 60.2982517,26.0563505 60.5495363,26.272055 C60.8008209,26.4877595 60.9264614,26.8357723 60.9264614,27.316104 L60.9264614,28.9705714 C60.9264614,29.4464555 60.8008209,29.7933565 60.5495363,30.0112847 C60.2982517,30.229213 59.892422,30.3381755 59.3320351,30.3381755 L58.4114041,30.3381755 L61.6669689,33 L59.3120214,33 L56.4700734,30.3381755 L54.9156746,30.3381755 L54.9156746,33 L53.3012347,33 Z M63.5015598,33 L63.5015598,27.2227066 L69.6991412,27.2227066 L69.6991412,28.2434063 L64.9225338,28.2434063 L64.9225338,29.5042705 L67.7044406,29.5042705 L67.7044406,30.4982852 L64.9225338,30.4982852 L64.9225338,31.9192592 L69.7725249,31.9192592 L69.7725249,33 L63.5015598,33 Z M77.4711352,28.2834337 L73.0747884,28.2834337 L73.0747884,31.8925742 L77.4711352,31.8925742 L77.4711352,30.6650662 L75.1762288,30.6650662 L75.1762288,29.6376953 L78.8520818,29.6376953 L78.8520818,31.6323959 C78.8520818,32.1616502 78.7486786,32.5218935 78.5418691,32.7131367 C78.3350597,32.9043799 77.9381249,33 77.3510529,33 L73.1681858,33 C72.5811138,33 72.184179,32.9043799 71.9773695,32.7131367 C71.7705601,32.5218935 71.6671569,32.1616502 71.6671569,31.6323959 L71.6671569,28.5836395 C71.6671569,28.0588327 71.7705601,27.7008131 71.9773695,27.5095699 C72.184179,27.3183268 72.5811138,27.2227066 73.1681858,27.2227066 L77.3510529,27.2227066 C77.9336774,27.2227066 78.3295003,27.316103 78.5385335,27.5028987 C78.7475667,27.6896943 78.8520818,28.0277004 78.8520818,28.5169271 L78.8520818,28.6703656 L77.4711352,28.903859 L77.4711352,28.2834337 Z M81.2603992,33 L81.2603992,27.2227066 L82.6613595,27.2227066 L82.6613595,33 L81.2603992,33 Z M90.5734495,28.2567487 L86.5973908,28.2567487 L86.5973908,29.4775856 L90.3599699,29.4775856 C90.9514894,29.4775856 91.349536,29.5720938 91.5541217,29.7611132 C91.7587074,29.9501326 91.8609987,30.3092641 91.8609987,30.8385184 L91.8609987,31.6323959 C91.8609987,32.1616502 91.7564837,32.5218935 91.5474505,32.7131367 C91.3384173,32.9043799 90.9425943,33 90.3599699,33 L86.6107333,33 C86.0147662,33 85.6111603,32.9043799 85.3999033,32.7131367 C85.1886463,32.5218935 85.0830194,32.1616502 85.0830194,31.6323959 L85.0830194,31.4722862 L86.3372125,31.2387928 L86.3372125,31.9192592 L90.586792,31.9192592 L90.586792,30.5983538 L86.8442267,30.5983538 C86.2527071,30.5983538 85.8524368,30.5016218 85.6434036,30.3081549 C85.4343703,30.114688 85.3298553,29.7555565 85.3298553,29.2307497 L85.3298553,28.5836395 C85.3298553,28.0632802 85.4343703,27.7063725 85.6434036,27.5129055 C85.8524368,27.3194386 86.2527071,27.2227066 86.8442267,27.2227066 L90.2732437,27.2227066 C90.8558682,27.2227066 91.2550267,27.3149912 91.4707312,27.4995631 C91.6864357,27.6841349 91.7942863,28.0099105 91.7942863,28.4768996 L91.7942863,28.6169957 L90.5734495,28.877174 L90.5734495,28.2567487 Z M97.7383607,28.2567487 L97.7383607,33 L96.3307292,33 L96.3307292,28.2567487 L93.5421511,28.2567487 L93.5421511,27.2227066 L100.53361,27.2227066 L100.53361,28.2567487 L97.7383607,28.2567487 Z M102.354858,33 L102.354858,27.2227066 L108.55244,27.2227066 L108.55244,28.2434063 L103.775832,28.2434063 L103.775832,29.5042705 L106.557739,29.5042705 L106.557739,30.4982852 L103.775832,30.4982852 L103.775832,31.9192592 L108.625823,31.9192592 L108.625823,33 L102.354858,33 Z M115.263707,28.2167213 L112.048169,28.2167213 L112.048169,29.8178188 L115.263707,29.8178188 C115.50832,29.8178188 115.676211,29.7822392 115.767385,29.7110789 C115.858559,29.6399187 115.904146,29.5198376 115.904146,29.350832 L115.904146,28.6837081 C115.904146,28.5147025 115.858559,28.3946214 115.767385,28.3234611 C115.676211,28.2523009 115.50832,28.2167213 115.263707,28.2167213 L115.263707,28.2167213 Z M110.660552,33 L110.660552,27.2227066 L115.864118,27.2227066 C116.340002,27.2227066 116.68468,27.3105437 116.89816,27.4862206 C117.111641,27.6618974 117.21838,27.947646 117.21838,28.3434749 L117.21838,29.7044077 C117.21838,30.095789 117.111641,30.378202 116.89816,30.5516551 C116.68468,30.7251082 116.340002,30.8118335 115.864118,30.8118335 L115.070241,30.8118335 L117.818791,33 L115.797406,33 L113.375746,30.8118335 L112.048169,30.8118335 L112.048169,33 L110.660552,33 Z M119.539971,33 L119.539971,27.2227066 L125.737553,27.2227066 L125.737553,28.2434063 L120.960945,28.2434063 L120.960945,29.5042705 L123.742852,29.5042705 L123.742852,30.4982852 L120.960945,30.4982852 L120.960945,31.9192592 L125.810936,31.9192592 L125.810936,33 L119.539971,33 Z M129.266638,31.9192592 L131.081216,31.9192592 C132.073011,31.9192592 132.766813,31.7747171 133.162642,31.4856286 C133.558471,31.1965402 133.756383,30.7095445 133.756383,30.0246272 C133.756383,29.4286602 133.591827,28.9850272 133.262711,28.6937149 C132.933595,28.4024027 132.428809,28.2567487 131.748339,28.2567487 L129.266638,28.2567487 L129.266638,31.9192592 Z M127.845664,33 L127.845664,27.2227066 L131.734997,27.2227066 C132.851323,27.2227066 133.708569,27.4706519 134.30676,27.9665498 C134.904951,28.4624478 135.204041,29.1707039 135.204041,30.0913396 C135.204041,31.0608979 134.887161,31.7880557 134.25339,32.2728349 C133.619619,32.7576141 132.662306,33 131.381421,33 L127.845664,33 Z M143.129474,33 L143.129474,25.9484999 L144.770599,25.9484999 L144.770599,33 L143.129474,33 Z M147.859383,33 L147.859383,27.2227066 L148.826712,27.2227066 L153.730073,31.0586693 L153.730073,27.2227066 L155.00428,27.2227066 L155.00428,33 L154.030279,33 L149.140261,29.1039962 L149.140261,33 L147.859383,33 Z M160.287902,33 L156.792172,27.2227066 L158.386599,27.2227066 L160.834943,31.412245 L163.143192,27.2227066 L164.604194,27.2227066 L161.255232,33 L160.287902,33 Z M166.218634,33 L166.218634,27.2227066 L172.416215,27.2227066 L172.416215,28.2434063 L167.639608,28.2434063 L167.639608,29.5042705 L170.421515,29.5042705 L170.421515,30.4982852 L167.639608,30.4982852 L167.639608,31.9192592 L172.489599,31.9192592 L172.489599,33 L166.218634,33 Z M179.861318,28.2567487 L175.88526,28.2567487 L175.88526,29.4775856 L179.647839,29.4775856 C180.239358,29.4775856 180.637405,29.5720938 180.841991,29.7611132 C181.046576,29.9501326 181.148868,30.3092641 181.148868,30.8385184 L181.148868,31.6323959 C181.148868,32.1616502 181.044353,32.5218935 180.835319,32.7131367 C180.626286,32.9043799 180.230463,33 179.647839,33 L175.898602,33 C175.302635,33 174.899029,32.9043799 174.687772,32.7131367 C174.476515,32.5218935 174.370888,32.1616502 174.370888,31.6323959 L174.370888,31.4722862 L175.625081,31.2387928 L175.625081,31.9192592 L179.874661,31.9192592 L179.874661,30.5983538 L176.132096,30.5983538 C175.540576,30.5983538 175.140306,30.5016218 174.931272,30.3081549 C174.722239,30.114688 174.617724,29.7555565 174.617724,29.2307497 L174.617724,28.5836395 C174.617724,28.0632802 174.722239,27.7063725 174.931272,27.5129055 C175.140306,27.3194386 175.540576,27.2227066 176.132096,27.2227066 L179.561113,27.2227066 C180.143737,27.2227066 180.542896,27.3149912 180.7586,27.4995631 C180.974305,27.6841349 181.082155,28.0099105 181.082155,28.4768996 L181.082155,28.6169957 L179.861318,28.877174 L179.861318,28.2567487 Z M187.02623,28.2567487 L187.02623,33 L185.618598,33 L185.618598,28.2567487 L182.83002,28.2567487 L182.83002,27.2227066 L189.821479,27.2227066 L189.821479,28.2567487 L187.02623,28.2567487 Z M191.642727,33 L191.642727,27.2227066 L192.770167,27.2227066 L195.598772,30.6517237 L198.414035,27.2227066 L199.548146,27.2227066 L199.548146,33 L198.240583,33 L198.240583,29.0239413 L195.658813,32.3061911 L195.385293,32.3061911 L192.770167,29.1173386 L192.770167,33 L191.642727,33 Z M202.123245,33 L202.123245,27.2227066 L208.320826,27.2227066 L208.320826,28.2434063 L203.544219,28.2434063 L203.544219,29.5042705 L206.326125,29.5042705 L206.326125,30.4982852 L203.544219,30.4982852 L203.544219,31.9192592 L208.39421,31.9192592 L208.39421,33 L202.123245,33 Z M210.428938,33 L210.428938,27.2227066 L211.396267,27.2227066 L216.299628,31.0586693 L216.299628,27.2227066 L217.573835,27.2227066 L217.573835,33 L216.599834,33 L211.709816,29.1039962 L211.709816,33 L210.428938,33 Z M223.597964,28.2567487 L223.597964,33 L222.190333,33 L222.190333,28.2567487 L219.401755,28.2567487 L219.401755,27.2227066 L226.393214,27.2227066 L226.393214,28.2567487 L223.597964,28.2567487 Z M235.826346,30.1847369 L238.91513,30.1847369 L237.394088,27.316104 L235.826346,30.1847369 Z M232.67085,33 L236.660251,25.9484999 L238.241335,25.9484999 L242.284106,33 L240.442844,33 L239.595597,31.4589437 L235.125866,31.4589437 L234.305304,33 L232.67085,33 Z M245.15941,31.9192592 L246.973987,31.9192592 C247.965783,31.9192592 248.659585,31.7747171 249.055414,31.4856286 C249.451243,31.1965402 249.649154,30.7095445 249.649154,30.0246272 C249.649154,29.4286602 249.484599,28.9850272 249.155483,28.6937149 C248.826367,28.4024027 248.321581,28.2567487 247.641111,28.2567487 L245.15941,28.2567487 L245.15941,31.9192592 Z M243.738436,33 L243.738436,27.2227066 L247.627769,27.2227066 C248.744095,27.2227066 249.601341,27.4706519 250.199532,27.9665498 C250.797722,28.4624478 251.096813,29.1707039 251.096813,30.0913396 C251.096813,31.0608979 250.779933,31.7880557 250.146162,32.2728349 C249.512391,32.7576141 248.555078,33 247.274193,33 L243.738436,33 Z M255.679955,33 L252.184225,27.2227066 L253.778652,27.2227066 L256.226997,31.412245 L258.535245,27.2227066 L259.996247,27.2227066 L256.647285,33 L255.679955,33 Z M261.610687,33 L261.610687,27.2227066 L263.011647,27.2227066 L263.011647,33 L261.610687,33 Z M270.923737,28.2567487 L266.947678,28.2567487 L266.947678,29.4775856 L270.710257,29.4775856 C271.301777,29.4775856 271.699824,29.5720938 271.904409,29.7611132 C272.108995,29.9501326 272.211286,30.3092641 272.211286,30.8385184 L272.211286,31.6323959 C272.211286,32.1616502 272.106771,32.5218935 271.897738,32.7131367 C271.688705,32.9043799 271.292882,33 270.710257,33 L266.961021,33 C266.365054,33 265.961448,32.9043799 265.750191,32.7131367 C265.538934,32.5218935 265.433307,32.1616502 265.433307,31.6323959 L265.433307,31.4722862 L266.6875,31.2387928 L266.6875,31.9192592 L270.93708,31.9192592 L270.93708,30.5983538 L267.194514,30.5983538 C266.602995,30.5983538 266.202724,30.5016218 265.993691,30.3081549 C265.784658,30.114688 265.680143,29.7555565 265.680143,29.2307497 L265.680143,28.5836395 C265.680143,28.0632802 265.784658,27.7063725 265.993691,27.5129055 C266.202724,27.3194386 266.602995,27.2227066 267.194514,27.2227066 L270.623531,27.2227066 C271.206156,27.2227066 271.605314,27.3149912 271.821019,27.4995631 C272.036723,27.6841349 272.144574,28.0099105 272.144574,28.4768996 L272.144574,28.6169957 L270.923737,28.877174 L270.923737,28.2567487 Z M275.913824,31.8925742 L280.570349,31.8925742 L280.570349,28.2834337 L275.913824,28.2834337 L275.913824,31.8925742 Z M274.506193,28.5836395 C274.506193,28.0588327 274.608484,27.7008131 274.81307,27.5095699 C275.017655,27.3183268 275.415702,27.2227066 276.007222,27.2227066 L280.476952,27.2227066 C281.072919,27.2227066 281.472078,27.3183268 281.674439,27.5095699 C281.876801,27.7008131 281.977981,28.0588327 281.977981,28.5836395 L281.977981,31.6323959 C281.977981,32.1616502 281.874578,32.5218935 281.667768,32.7131367 C281.460959,32.9043799 281.064024,33 280.476952,33 L276.007222,33 C275.415702,33 275.017655,32.9043799 274.81307,32.7131367 C274.608484,32.5218935 274.506193,32.1616502 274.506193,31.6323959 L274.506193,28.5836395 Z M289.016138,28.2167213 L285.800601,28.2167213 L285.800601,29.8178188 L289.016138,29.8178188 C289.260752,29.8178188 289.428643,29.7822392 289.519817,29.7110789 C289.610991,29.6399187 289.656577,29.5198376 289.656577,29.350832 L289.656577,28.6837081 C289.656577,28.5147025 289.610991,28.3946214 289.519817,28.3234611 C289.428643,28.2523009 289.260752,28.2167213 289.016138,28.2167213 L289.016138,28.2167213 Z M284.412983,33 L284.412983,27.2227066 L289.61655,27.2227066 C290.092434,27.2227066 290.437111,27.3105437 290.650592,27.4862206 C290.864073,27.6618974 290.970812,27.947646 290.970812,28.3434749 L290.970812,29.7044077 C290.970812,30.095789 290.864073,30.378202 290.650592,30.5516551 C290.437111,30.7251082 290.092434,30.8118335 289.61655,30.8118335 L288.822673,30.8118335 L291.571223,33 L289.549838,33 L287.128178,30.8118335 L285.800601,30.8118335 L285.800601,33 L284.412983,33 Z" id="Registered-Investmen-Copy" fill="#FFFFFF"></path>
                    <path d="M39.8847656,33.387207 L39.4438477,33.387207 L39.4438477,34.3339844 L39.8984375,34.3339844 C40.1559258,34.3339844 40.3404942,34.2980961 40.4521484,34.2263184 C40.5638026,34.1545407 40.6196289,34.0389005 40.6196289,33.8793945 C40.6196289,33.7062166 40.561524,33.5808923 40.4453125,33.503418 C40.329101,33.4259436 40.1422539,33.387207 39.8847656,33.387207 L39.8847656,33.387207 Z M39.9804688,33.0385742 C40.3769551,33.0385742 40.6748851,33.1040846 40.8742676,33.2351074 C41.0736501,33.3661302 41.1733398,33.5615221 41.1733398,33.8212891 C41.1733398,34.0240896 41.1163743,34.1927077 41.0024414,34.3271484 C40.8885085,34.4615892 40.7278656,34.5493162 40.5205078,34.590332 L41.159668,35.8925781 L40.5546875,35.8925781 L39.9736328,34.6757812 L39.4438477,34.6757812 L39.4438477,35.8925781 L38.9038086,35.8925781 L38.9038086,33.0385742 L39.9804688,33.0385742 Z M42.1030273,34.5356445 C42.1030273,34.2303045 42.0500494,33.9443373 41.9440918,33.6777344 C41.8381342,33.4111315 41.6837575,33.1764333 41.480957,32.9736328 C41.2713206,32.7617177 41.0337741,32.6005051 40.7683105,32.4899902 C40.502847,32.3794754 40.2197281,32.3242188 39.9189453,32.3242188 C39.6227199,32.3242188 39.3435885,32.3777664 39.081543,32.4848633 C38.8194974,32.5919602 38.5904958,32.7457672 38.3945312,32.9462891 C38.1803375,33.1627615 38.015707,33.4065742 37.9006348,33.6777344 C37.7855626,33.9488946 37.7280273,34.2280259 37.7280273,34.5151367 C37.7280273,34.7999689 37.783284,35.0739733 37.8937988,35.3371582 C38.0043137,35.6003431 38.1632477,35.8367503 38.3706055,36.0463867 C38.5756846,36.2560232 38.8109524,36.4172358 39.076416,36.5300293 C39.3418796,36.6428228 39.615884,36.6992188 39.8984375,36.6992188 C40.1946629,36.6992188 40.4755032,36.6445318 40.7409668,36.5351562 C41.0064304,36.4257807 41.2485341,36.2662771 41.4672852,36.0566406 C41.6723643,35.8561188 41.8295893,35.6254082 41.9389648,35.364502 C42.0483404,35.1035957 42.1030273,34.8273127 42.1030273,34.5356445 L42.1030273,34.5356445 Z M39.9121094,31.9960938 C40.2561866,31.9960938 40.5820297,32.0598952 40.8896484,32.1875 C41.1972672,32.3151048 41.4707019,32.5008126 41.7099609,32.7446289 C41.9446626,32.9816093 42.1246739,33.2527654 42.25,33.5581055 C42.3753261,33.8634455 42.4379883,34.1824528 42.4379883,34.5151367 C42.4379883,34.859214 42.3753261,35.1822088 42.25,35.4841309 C42.1246739,35.7860529 41.942384,36.0532215 41.703125,36.2856445 C41.4547514,36.5271822 41.1761897,36.7123203 40.8674316,36.8410645 C40.5586736,36.9698086 40.240236,37.0341797 39.9121094,37.0341797 C39.5771468,37.0341797 39.2575699,36.9698086 38.9533691,36.8410645 C38.6491684,36.7123203 38.3763033,36.5249036 38.1347656,36.2788086 C37.8955066,36.0372709 37.7132168,35.7655451 37.5878906,35.463623 C37.4625645,35.161701 37.3999023,34.845542 37.3999023,34.5151367 C37.3999023,34.1824528 37.4654128,33.8605973 37.5964355,33.5495605 C37.7274583,33.2385238 37.9160144,32.9588229 38.1621094,32.7104492 C38.3922538,32.4757475 38.6560044,32.2980149 38.9533691,32.1772461 C39.2507339,32.0564773 39.5703108,31.9960938 39.9121094,31.9960938 L39.9121094,31.9960938 Z" id="®-copy" opacity="0.462278451" fill="#FFFFFF"></path>
                    <path d="M19.75,39.5 C30.6576238,39.5 39.5,30.6576238 39.5,19.75 C39.5,8.84237619 30.6576238,0 19.75,0 C8.84237619,0 0,8.84237619 0,19.75 C0,30.6576238 8.84237619,39.5 19.75,39.5 L19.75,39.5 Z M19.75,32.6104651 C12.6473612,32.6104651 6.88953488,26.8526388 6.88953488,19.75 C6.88953488,12.6473612 12.6473612,6.88953488 19.75,6.88953488 C26.8526388,6.88953488 32.6104651,12.6473612 32.6104651,19.75 C32.6104651,26.8526388 26.8526388,32.6104651 19.75,32.6104651 L19.75,32.6104651 Z" id="Shape" fill="#81BF58"></path>
                </g>
            </g>
        </g>
    </g>
</svg>